<svg width="19" height="16" viewBox="0 0 19 16" fill="none" xmlns="http://www.w3.org/2000/svg">
<path d="M17.7419 8.9142C17.7419 4.12698 13.9827 0.246155 9.34552 0.246155C4.70833 0.246155 0.76929 4.12698 0.76929 8.9142V14.3243C0.768783 14.5078 0.839146 14.6838 0.964796 14.8136C1.09045 14.9433 1.26101 15.0159 1.43871 15.0154H2.39502C2.57271 15.0159 2.74328 14.9433 2.86893 14.8136C2.99458 14.6838 3.06494 14.5078 3.06443 14.3243V9.83034C3.06443 9.44867 3.36414 9.13929 3.73385 9.13929H5.09562C5.46532 9.13929 5.76505 9.44867 5.76505 9.83034V14.3243C5.76454 14.5078 5.83489 14.6838 5.96056 14.8136C6.08619 14.9433 6.25676 15.0159 6.43445 15.0154H7.39078C7.56847 15.0159 7.73904 14.9433 7.86467 14.8136C7.99033 14.6838 8.06069 14.5078 8.06018 14.3243V12.9599C8.06018 11.5949 8.76558 10.3336 9.91063 9.65116C11.0557 8.96867 12.4665 8.96867 13.6115 9.65116C14.7566 10.3336 15.462 11.5949 15.462 12.9599V14.3243C15.462 14.706 15.7617 15.0154 16.1314 15.0154H17.0763C17.446 15.0154 17.7458 14.706 17.7458 14.3243L17.7419 8.9142ZM5.60246 7.06909C5.4772 7.27774 5.30538 7.45239 5.10135 7.57848C4.74587 7.78905 4.31898 7.82873 3.93276 7.6871C3.87664 7.66916 3.82321 7.64324 3.77401 7.61008C3.33287 7.36005 3.05872 6.88175 3.05872 6.36222C3.05872 5.84265 3.33287 5.36439 3.77401 5.11432C3.82552 5.08036 3.88159 5.05444 3.94041 5.03731C4.44244 4.85509 5.00121 4.98377 5.38062 5.36902C5.64736 5.62334 5.79858 5.98146 5.79756 6.3563C5.79715 6.60786 5.72965 6.85448 5.60246 7.06909Z" fill="#B3B3B3"/>
<path d="M18.4885 8.9142C18.4885 4.12698 14.7293 0.246155 10.0921 0.246155C5.45494 0.246155 1.51589 4.12698 1.51589 8.9142V14.3243C1.51538 14.5078 1.58575 14.6838 1.7114 14.8136C1.83705 14.9433 2.00762 15.0159 2.18531 15.0154H3.14162C3.31931 15.0159 3.48988 14.9433 3.61553 14.8136C3.74118 14.6838 3.81154 14.5078 3.81103 14.3243V9.83034C3.81103 9.44867 4.11074 9.13929 4.48045 9.13929H5.84222C6.21192 9.13929 6.51165 9.44867 6.51165 9.83034V14.3243C6.51114 14.5078 6.58149 14.6838 6.70716 14.8136C6.83279 14.9433 7.00336 15.0159 7.18105 15.0154H8.13738C8.31507 15.0159 8.48564 14.9433 8.61127 14.8136C8.73694 14.6838 8.80729 14.5078 8.80678 14.3243V12.9599C8.80678 11.5949 9.51218 10.3336 10.6572 9.65116C11.8023 8.96867 13.2131 8.96867 14.3581 9.65116C15.5032 10.3336 16.2086 11.5949 16.2086 12.9599V14.3243C16.2086 14.706 16.5083 15.0154 16.878 15.0154H17.8229C18.1926 15.0154 18.4924 14.706 18.4924 14.3243L18.4885 8.9142ZM6.34906 7.06909C6.2238 7.27774 6.05198 7.45239 5.84796 7.57848C5.49247 7.78905 5.06558 7.82873 4.67935 7.6871C4.62325 7.66916 4.5698 7.64324 4.52063 7.61008C4.07948 7.36005 3.80532 6.88175 3.80532 6.36222C3.80532 5.84265 4.07948 5.36439 4.52063 5.11432C4.57211 5.08036 4.62818 5.05444 4.68702 5.03731C5.18904 4.85509 5.74781 4.98377 6.12722 5.36902C6.39396 5.62334 6.54518 5.98146 6.54416 6.3563C6.54376 6.60786 6.47626 6.85448 6.34906 7.06909Z" fill="#FCFCFC"/>
</svg>
