<svg width="current" height="current" viewBox="0 0 222 216" fill="none" xmlns="http://www.w3.org/2000/svg">
<g opacity="0.7">
<path d="M217.352 152.369C224.429 171.835 221.32 187.492 221.32 187.492C218.009 201.902 209.821 207.559 205.98 209.385C202.139 211.211 196.63 211.612 193.041 211.746C189.452 211.879 170.903 212.882 170.903 212.882C169.85 212.945 168.843 212.974 167.874 212.974C172.727 212.867 178.863 206.464 181.82 195.131C184.777 183.795 180.253 171.924 176.008 159.541C171.762 147.158 166.278 136.913 166.278 136.913C174.087 132.102 187.633 133.082 196.528 140.12C205.424 147.158 208.204 157.469 208.204 157.469L207.901 155.621C207.901 155.621 207.901 155.614 207.901 155.602C207.804 154.882 204.46 131.783 178.564 125.621C178.564 125.621 176.934 125.261 174.176 125.079C174.727 125.079 197.316 125.031 212.045 138.817C214.046 143.665 215.887 148.327 217.357 152.369H217.352Z" fill="url(#paint0_linear_104_6188)" fill-opacity="0.03"/>
<path d="M161.351 125.875C166.573 124.891 171.076 124.873 174.163 125.077H174.172C176.931 125.259 178.561 125.619 178.561 125.619C204.456 131.781 207.8 154.88 207.897 155.6C200.004 129.606 178.03 127.913 178.03 127.913C171.009 127.197 165.007 127.79 159.767 129.212C152.392 131.213 146.525 134.858 141.449 138.815C138.918 140.782 136.584 142.835 134.36 144.795C130.978 147.776 123.472 154.943 115.065 163.073C114.24 163.874 113.402 164.684 112.559 165.5C97.0423 180.545 79.6216 197.713 79.6216 197.713C68.1988 208.332 57.5425 212.735 50.7612 214.557C51.1234 214.327 69.7782 202.623 86.5966 185.686C103.579 168.581 108.356 163.369 108.356 163.369C121.573 150.719 137.241 137.579 137.241 137.579C145.434 130.474 154.089 127.241 161.351 125.875Z" fill="url(#paint1_linear_104_6188)" fill-opacity="0.03"/>
<path d="M194.558 99.0944C194.558 99.0944 204.426 120.319 212.041 138.816C197.312 125.03 174.723 125.074 174.172 125.078H174.163C171.076 124.874 166.573 124.892 161.35 125.876L151.949 105.82C151.646 105.145 112.374 19.0387 111.392 16.5777C110.803 15.0966 109.328 12.8954 107.989 11.084C107.092 9.87017 106.258 8.83082 105.786 8.2963C104.611 6.95999 104.535 5.89095 105.976 5.85754C107.416 5.82413 139.145 5.2228 141.609 5.25621C144.073 5.28961 147.362 5.12629 149.527 7.09362C153.474 10.8798 155.597 15.0446 155.597 15.0446L185.544 78.5859L194.566 99.0981L194.558 99.0944Z" fill="url(#paint2_linear_104_6188)" fill-opacity="0.03"/>
<path d="M177.164 185.833C177.366 197.329 173.045 207.414 165.084 208.483C157.123 209.552 151.033 204.363 146.534 199.285C142.036 194.207 117.949 167.76 117.949 167.76C126.356 159.63 133.862 152.463 137.244 149.482C139.468 147.522 141.801 145.469 144.332 143.502C144.332 143.502 155.615 153.114 158.142 155.386C160.669 157.657 171.486 166.167 175.146 172.793C176.241 177.225 177.096 181.891 177.164 185.833Z" fill="url(#paint3_linear_104_6188)" fill-opacity="0.03"/>
<path d="M151.949 105.82L161.35 125.876C154.089 127.242 145.433 130.475 137.241 137.58C137.241 137.58 121.572 150.72 108.355 163.37C108.355 163.37 103.579 168.582 86.5961 185.687C69.7777 202.624 51.1229 214.328 50.7607 214.558H50.7565C46.1065 215.805 43.2802 215.843 43.2802 215.843C18.5138 217.09 5.47359 202.257 1.73336 186.978C-0.124114 179.399 0.00224543 171.143 1.20687 163.318C1.20687 163.318 2.36516 178.738 16.6185 183.281C30.8718 187.825 45.7316 180.943 53.1615 174.863C60.5914 168.782 97.2103 131.165 106.915 123.014C116.619 114.863 131.07 105.642 150.1 105.508C151.241 105.661 151.882 105.805 151.945 105.817L151.949 105.82Z" fill="url(#paint4_linear_104_6188)" fill-opacity="0.03"/>
<path d="M38.6603 178.275C37.9485 178.535 37.2577 178.75 36.5964 178.906C36.5964 178.906 35.0675 179.363 34.0819 178.227C33.0963 177.091 31.3525 172.325 31.858 166.89C32.3634 161.456 35.0928 148.227 42.5732 132.993C50.0537 117.759 75.0727 64.8859 79.1668 57.1354C83.2608 49.3848 91.3731 31.6788 93.875 27.0686C95.0838 24.8377 98.4388 17.513 103.788 15.2873L104.889 16.6873L108.147 22.5313L111.392 30.2144L73.6899 112.1L63.4634 132.992L54.6978 154.665L47.9774 169.428C47.9774 169.428 44.4054 176.159 38.6603 178.275Z" fill="url(#paint5_linear_104_6188)" fill-opacity="0.03"/>
<path d="M79.7494 112.1C79.7494 112.1 94.8665 114.124 104.786 119.068C99.5418 122.825 88.7254 133.527 88.7254 133.527C88.7254 133.527 91.4347 130.854 84.7251 137.992C81.3344 134.246 70.1621 130.677 70.1621 130.677L79.7494 112.1Z" fill="url(#paint6_linear_104_6188)" fill-opacity="0.03"/>
<path d="M38.6609 178.274C26.6062 182.932 15.4108 180.705 8.91174 169.428C2.46743 158.248 7.60182 141.451 7.8082 140.798C7.8082 140.79 7.81242 140.787 7.81242 140.779C13.2711 128.155 27.4613 96.8892 27.4613 96.8892L30.6202 90.1112L30.6539 90.0481C31.53 88.3517 50.2606 52.0971 52.5561 48.2478C54.9064 44.3057 62.7154 29.74 67.6434 22.6576C72.5714 15.5752 79.2053 8.76003 87.8482 8.02507C88.0041 8.01022 88.1557 7.99908 88.3115 7.99166C95.9521 7.53509 101.246 12.0748 103.816 15.3005C101.39 16.4178 99.5112 18.2404 97.9401 20.3413C96.3606 22.4497 95.0844 24.8365 93.8756 27.0674C91.3736 31.6776 83.2614 49.3836 79.1674 57.1342C75.0733 64.8848 50.0542 117.758 42.5738 132.992C35.0933 148.226 32.364 161.455 31.8585 166.889C31.3531 172.324 33.0969 177.09 34.0825 178.226C35.0681 179.361 36.597 178.905 36.597 178.905C37.2583 178.749 37.949 178.534 38.6609 178.274Z" fill="url(#paint7_linear_104_6188)" fill-opacity="0.03"/>
<path d="M67.6423 22.6575C62.7143 29.7399 54.9053 44.3056 52.555 48.2477C50.2595 52.097 31.5288 88.3516 30.6528 90.048L59.4542 28.2699C63.0933 20.7866 68.552 12.702 68.552 12.702C76.976 0.601024 90.0457 -0.0188732 93.1794 0.0182464C94.1566 0.0293822 95.1338 0.0405181 96.1067 0.0405181H127.157C136.786 -0.360373 142.472 2.34564 142.472 2.34564C145.231 3.48521 147.594 5.24096 149.519 7.08952C147.354 5.12218 144.064 5.28551 141.6 5.2521C139.136 5.21869 107.407 5.82003 105.967 5.85344C104.526 5.88685 104.602 6.95589 105.777 8.29219C106.249 8.82671 107.083 9.86606 107.98 11.0799C101.271 6.72946 91.3514 7.59434 88.3104 7.99152C88.1546 7.99895 88.0029 8.01008 87.8471 8.02493C79.2041 8.7599 72.5703 15.575 67.6423 22.6575Z" fill="url(#paint8_linear_104_6188)" fill-opacity="0.03"/>
</g>
<defs>
<linearGradient id="paint0_linear_104_6188" x1="71.5722" y1="23.6158" x2="174.194" y2="218.834" gradientUnits="userSpaceOnUse">
<stop offset="0.254864" stop-color="white"/>
<stop offset="1" stop-color="#181819"/>
</linearGradient>
<linearGradient id="paint1_linear_104_6188" x1="71.5722" y1="23.6158" x2="174.194" y2="218.834" gradientUnits="userSpaceOnUse">
<stop offset="0.254864" stop-color="white"/>
<stop offset="1" stop-color="#181819"/>
</linearGradient>
<linearGradient id="paint2_linear_104_6188" x1="71.5722" y1="23.6158" x2="174.194" y2="218.834" gradientUnits="userSpaceOnUse">
<stop offset="0.254864" stop-color="white"/>
<stop offset="1" stop-color="#181819"/>
</linearGradient>
<linearGradient id="paint3_linear_104_6188" x1="71.5722" y1="23.6158" x2="174.194" y2="218.834" gradientUnits="userSpaceOnUse">
<stop offset="0.254864" stop-color="white"/>
<stop offset="1" stop-color="#181819"/>
</linearGradient>
<linearGradient id="paint4_linear_104_6188" x1="71.5722" y1="23.6158" x2="174.194" y2="218.834" gradientUnits="userSpaceOnUse">
<stop offset="0.254864" stop-color="white"/>
<stop offset="1" stop-color="#181819"/>
</linearGradient>
<linearGradient id="paint5_linear_104_6188" x1="71.5722" y1="23.6158" x2="174.194" y2="218.834" gradientUnits="userSpaceOnUse">
<stop offset="0.254864" stop-color="white"/>
<stop offset="1" stop-color="#181819"/>
</linearGradient>
<linearGradient id="paint6_linear_104_6188" x1="71.5722" y1="23.6158" x2="174.194" y2="218.834" gradientUnits="userSpaceOnUse">
<stop offset="0.254864" stop-color="white"/>
<stop offset="1" stop-color="#181819"/>
</linearGradient>
<linearGradient id="paint7_linear_104_6188" x1="71.5722" y1="23.6158" x2="174.194" y2="218.834" gradientUnits="userSpaceOnUse">
<stop offset="0.254864" stop-color="white"/>
<stop offset="1" stop-color="#181819"/>
</linearGradient>
<linearGradient id="paint8_linear_104_6188" x1="71.5722" y1="23.6158" x2="174.194" y2="218.834" gradientUnits="userSpaceOnUse">
<stop offset="0.254864" stop-color="white"/>
<stop offset="1" stop-color="#181819"/>
</linearGradient>
</defs>
</svg>
