<svg width="current" height="current" viewBox="0 0 24 24" fill="current" xmlns="http://www.w3.org/2000/svg">
<path fill-rule="evenodd" clip-rule="evenodd" d="M6.30097 17.7105C6.48079 17.8902 6.74054 18 7.01028 18L6.99929 17.988C7.25903 17.988 7.51878 17.8782 7.70859 17.6985L7.70959 17.6995L16.0029 9.41196V16.0033C16.0029 16.5524 16.4425 17.0016 17.002 17.0016C17.5514 17.0016 18.001 16.5524 18.001 16.0033V7.01835C18.001 6.79086 17.9266 6.58321 17.8012 6.41692C17.771 6.37556 17.7372 6.33599 17.6998 6.29862C17.4485 6.04806 17.1062 5.95511 16.7898 6.02002H8.01074C7.45129 6.02002 7.01172 6.45928 7.01172 7.01835C7.01172 7.56742 7.45129 8.01667 8.01074 8.01667H14.563L6.29098 16.2829V16.2929C5.90136 16.6822 5.90136 17.3211 6.30097 17.7105Z" fill="current"/>
</svg>
