<svg width="current" height="current" viewBox="0 0 16 16" fill="current" xmlns="http://www.w3.org/2000/svg">
<path d="M14.0306 8.53025L9.53063 13.0302C9.38973 13.1711 9.19863 13.2503 8.99938 13.2503C8.80012 13.2503 8.60902 13.1711 8.46813 13.0302C8.32723 12.8894 8.24807 12.6983 8.24807 12.499C8.24807 12.2997 8.32723 12.1086 8.46813 11.9677L11.6875 8.74962H2.5C2.30109 8.74962 2.11032 8.6706 1.96967 8.52995C1.82902 8.3893 1.75 8.19853 1.75 7.99962C1.75 7.80071 1.82902 7.60994 1.96967 7.46929C2.11032 7.32864 2.30109 7.24962 2.5 7.24962H11.6875L8.46937 4.02962C8.32848 3.88873 8.24932 3.69763 8.24932 3.49837C8.24932 3.29911 8.32848 3.10802 8.46937 2.96712C8.61027 2.82622 8.80137 2.74707 9.00062 2.74707C9.19988 2.74707 9.39098 2.82622 9.53187 2.96712L14.0319 7.46712C14.1018 7.53689 14.1573 7.61979 14.1951 7.71106C14.2329 7.80232 14.2523 7.90016 14.2522 7.99894C14.252 8.09773 14.2324 8.19552 14.1944 8.28669C14.1564 8.37787 14.1007 8.46064 14.0306 8.53025Z" fill="current"/>
</svg>
