<svg width="current" height="current" viewBox="0 0 32 32" fill="current" xmlns="http://www.w3.org/2000/svg">
<g id="BellSimple">
<path id="Vector" d="M20.9995 28C20.9995 28.2652 20.8942 28.5196 20.7066 28.7071C20.5191 28.8946 20.2647 29 19.9995 29H11.9995C11.7343 29 11.48 28.8946 11.2924 28.7071C11.1049 28.5196 10.9995 28.2652 10.9995 28C10.9995 27.7348 11.1049 27.4804 11.2924 27.2929C11.48 27.1054 11.7343 27 11.9995 27H19.9995C20.2647 27 20.5191 27.1054 20.7066 27.2929C20.8942 27.4804 20.9995 27.7348 20.9995 28ZM27.7258 21.9925C27.0308 20.7975 25.9995 17.4163 25.9995 13C25.9995 10.3478 24.946 7.8043 23.0706 5.92893C21.1952 4.05357 18.6517 3 15.9995 3C13.3474 3 10.8038 4.05357 8.92846 5.92893C7.0531 7.8043 5.99953 10.3478 5.99953 13C5.99953 17.4175 4.96703 20.7975 4.27328 21.9925C4.09612 22.2963 4.0022 22.6415 4.00099 22.9931C3.99978 23.3448 4.09133 23.6906 4.2664 23.9956C4.44147 24.3006 4.69388 24.5541 4.99816 24.7304C5.30244 24.9068 5.64784 24.9997 5.99953 25H25.9995C26.3511 24.9995 26.6963 24.9064 27.0005 24.73C27.3046 24.5535 27.5568 24.3 27.7317 23.9951C27.9066 23.6901 27.9981 23.3444 27.9968 22.9928C27.9956 22.6412 27.9016 22.2962 27.7245 21.9925H27.7258Z" fill="current"/>
</g>
</svg>
