<svg width="current" height="current" viewBox="0 0 24 24" fill="current" xmlns="http://www.w3.org/2000/svg">
<path fill-rule="evenodd" clip-rule="evenodd" d="M18 3H6C4.34315 3 3 4.34315 3 6V18C3 19.6569 4.34315 21 6 21H18C19.6569 21 21 19.6569 21 18V6C21 4.34315 19.6569 3 18 3ZM6 5H18C18.5523 5 19 5.44772 19 6V18C19 18.5523 18.5523 19 18 19H6C5.44772 19 5 18.5523 5 18V6C5 5.44772 5.44772 5 6 5ZM12.9933 7.88338C12.9355 7.38604 12.5128 7 12 7C11.4477 7 11 7.44772 11 8L11.0067 8.12662C11.0645 8.62396 11.4872 9.01 12 9.01C12.5523 9.01 13 8.56228 13 8.01L12.9933 7.88338ZM8 11C8.51284 11 8.93551 11.386 8.99327 11.8834L9 12.01C9 12.5623 8.55228 13.01 8 13.01C7.48716 13.01 7.06449 12.624 7.00673 12.1266L7 12C7 11.4477 7.44772 11 8 11ZM12.9933 11.8834C12.9355 11.386 12.5128 11 12 11C11.4477 11 11 11.4477 11 12L11.0067 12.1266C11.0645 12.624 11.4872 13.01 12 13.01C12.5523 13.01 13 12.5623 13 12.01L12.9933 11.8834ZM16 11C16.5128 11 16.9355 11.386 16.9933 11.8834L17 12.01C17 12.5623 16.5523 13.01 16 13.01C15.4872 13.01 15.0645 12.624 15.0067 12.1266L15 12C15 11.4477 15.4477 11 16 11ZM12.9933 15.8834C12.9355 15.386 12.5128 15 12 15C11.4477 15 11 15.4477 11 16L11.0067 16.1266C11.0645 16.624 11.4872 17.01 12 17.01C12.5523 17.01 13 16.5623 13 16.01L12.9933 15.8834Z" fill="current"/>
</svg>
