<svg width="current" height="current" viewBox="0 0 24 24" fill="current" xmlns="http://www.w3.org/2000/svg">
<path fill-rule="evenodd" clip-rule="evenodd" d="M15 2C15.5128 2 15.9355 2.38604 15.9933 2.88338L16 3V4H17C18.5977 4 19.9037 5.24892 19.9949 6.82373L20 7V11C20 11.4832 19.6572 11.8864 19.2015 11.9797C19.1736 11.9854 19.1453 11.9899 19.1166 11.9933C19.0784 11.9977 19.0394 12 19 12H4V19C4 19.5128 4.38604 19.9355 4.88338 19.9933L5 20H11.795C12.3473 20 12.795 20.4477 12.795 21C12.795 21.5128 12.409 21.9355 11.9116 21.9933L11.795 22H5C3.40232 22 2.09634 20.7511 2.00509 19.1763L2 19V11V7C2 5.40232 3.24892 4.09634 4.82373 4.00509L5 4H6V3C6 2.44772 6.44772 2 7 2C7.51284 2 7.93551 2.38604 7.99327 2.88338L8 3V4H14V3C14 2.44772 14.4477 2 15 2ZM18 7V10H4V7L4.00673 6.88338C4.06449 6.38604 4.48716 6 5 6H6V7L6.00673 7.11662C6.06449 7.61396 6.48716 8 7 8C7.55228 8 8 7.55228 8 7V6H14V7L14.0067 7.11662C14.0645 7.61396 14.4872 8 15 8C15.5523 8 16 7.55228 16 7V6H17L17.1166 6.00673C17.614 6.06449 18 6.48716 18 7ZM18 13C15.2386 13 13 15.2386 13 18C13 20.7614 15.2386 23 18 23C20.7614 23 23 20.7614 23 18C23 15.2386 20.7614 13 18 13ZM18 15C19.6569 15 21 16.3431 21 18C21 19.6569 19.6569 21 18 21C16.3431 21 15 19.6569 15 18C15 16.3431 16.3431 15 18 15ZM18.9933 16.3794C18.9355 15.882 18.5128 15.496 18 15.496C17.4477 15.496 17 15.9437 17 16.496V18L17.0087 18.1314C17.0374 18.3481 17.1366 18.5508 17.2929 18.7071L18.2929 19.7071L18.3871 19.7903C18.7794 20.0953 19.3466 20.0676 19.7071 19.7071L19.7903 19.6129C20.0953 19.2206 20.0676 18.6534 19.7071 18.2929L19 17.585V16.496L18.9933 16.3794Z" fill="current"/>
</svg>
