<svg width="current" height="current" viewBox="0 0 24 24" fill="current" xmlns="http://www.w3.org/2000/svg">
<path fill-rule="evenodd" clip-rule="evenodd" d="M17.709 19.0013C20.6952 16.5678 21.8922 12.3876 20.3777 8.62651C18.5145 3.99968 13.2534 1.75928 8.62652 3.62243C8.11421 3.82873 7.86614 4.41128 8.07244 4.92359C8.27874 5.43589 8.86129 5.68396 9.3736 5.47766C12.9758 4.02711 17.0719 5.77137 18.5224 9.37359C19.7739 12.4814 18.6474 15.9567 16.0014 17.7837L16.0001 15L15.9933 14.8834C15.9356 14.3861 15.5129 14 15.0001 14C14.4478 14 14.0001 14.4478 14.0001 15V20L14.0068 20.1167C14.0646 20.614 14.4872 21 15.0001 21H20.0001L20.1167 20.9933C20.614 20.9356 21.0001 20.5129 21.0001 20L20.9933 19.8834C20.9356 19.3861 20.5129 19 20.0001 19L17.709 19.0013ZM6.62333 7.04343C6.56557 6.54609 6.14289 6.16005 5.63006 6.16005C5.07777 6.16005 4.63006 6.60776 4.63006 7.16005L4.63679 7.28667C4.69455 7.78401 5.11722 8.17005 5.63006 8.17005C6.18234 8.17005 6.63006 7.72233 6.63006 7.17005L6.62333 7.04343ZM4.06006 10C4.57289 10 4.99557 10.3861 5.05333 10.8834L5.06006 11.01C5.06006 11.5623 4.61234 12.01 4.06006 12.01C3.54722 12.01 3.12455 11.624 3.06679 11.1267L3.06006 11C3.06006 10.4478 3.50777 10 4.06006 10ZM5.62333 14.9834C5.56557 14.4861 5.14289 14.1 4.63006 14.1C4.07777 14.1 3.63006 14.5478 3.63006 15.1L3.63679 15.2267C3.69455 15.724 4.11722 16.11 4.63006 16.11C5.18234 16.11 5.63006 15.6623 5.63006 15.11L5.62333 14.9834ZM7.16006 17.37C7.67289 17.37 8.09557 17.7561 8.15333 18.2534L8.16006 18.38C8.16006 18.9323 7.71234 19.38 7.16006 19.38C6.64722 19.38 6.22455 18.994 6.16679 18.4967L6.16006 18.37C6.16006 17.8178 6.60777 17.37 7.16006 17.37ZM11.9933 19.8234C11.9356 19.3261 11.5129 18.94 11.0001 18.94C10.4478 18.94 10.0001 19.3878 10.0001 19.94L10.0068 20.0667C10.0646 20.564 10.4872 20.95 11.0001 20.95C11.5523 20.95 12.0001 20.5023 12.0001 19.95L11.9933 19.8234Z" fill="current"/>
</svg>
