<svg width="20" height="20" viewBox="0 0 20 20" fill="none" xmlns="http://www.w3.org/2000/svg">
<g id="icon-ClockClockwise">
<path id="Vector" d="M10.6255 6.25012V9.64621L13.4473 11.3392C13.5895 11.4245 13.6919 11.5629 13.732 11.7238C13.7722 11.8846 13.7468 12.0549 13.6614 12.197C13.576 12.3391 13.4377 12.4415 13.2768 12.4817C13.116 12.5218 12.9457 12.4964 12.8036 12.4111L9.67859 10.5361C9.5861 10.4805 9.50957 10.4019 9.45645 10.308C9.40333 10.2141 9.37543 10.108 9.37547 10.0001V6.25012C9.37547 6.08436 9.44132 5.92539 9.55853 5.80818C9.67574 5.69097 9.83471 5.62512 10.0005 5.62512C10.1662 5.62512 10.3252 5.69097 10.4424 5.80818C10.5596 5.92539 10.6255 6.08436 10.6255 6.25012ZM17.5005 4.37512C17.3347 4.37512 17.1757 4.44097 17.0585 4.55818C16.9413 4.67539 16.8755 4.83436 16.8755 5.00012V6.40637C16.3794 5.83137 15.8731 5.27746 15.3036 4.7009C14.2613 3.65848 12.9349 2.94634 11.4902 2.65344C10.0454 2.36055 8.54644 2.4999 7.18046 3.05408C5.81447 3.60826 4.64209 4.55269 3.80979 5.76937C2.9775 6.98605 2.5222 8.42102 2.50079 9.89499C2.47938 11.369 2.89281 12.8165 3.68942 14.0569C4.48603 15.2972 5.63049 16.2753 6.97981 16.8689C8.32912 17.4625 9.82345 17.6454 11.2761 17.3946C12.7287 17.1437 14.0752 16.4704 15.1473 15.4587C15.2071 15.4023 15.2551 15.3346 15.2886 15.2597C15.3222 15.1847 15.3407 15.1038 15.343 15.0217C15.3453 14.9396 15.3314 14.8578 15.3022 14.781C15.2729 14.7043 15.2288 14.634 15.1723 14.5743C15.1159 14.5146 15.0483 14.4666 14.9733 14.433C14.8983 14.3995 14.8175 14.381 14.7353 14.3787C14.6532 14.3764 14.5714 14.3902 14.4947 14.4195C14.4179 14.4488 14.3477 14.4929 14.288 14.5493C13.3943 15.3916 12.2722 15.9519 11.062 16.1603C9.85173 16.3686 8.60691 16.2159 7.48298 15.721C6.35904 15.2261 5.40579 14.4111 4.74227 13.3778C4.07875 12.3444 3.73437 11.1385 3.75212 9.91055C3.76987 8.68262 4.14897 7.48714 4.84209 6.47338C5.5352 5.45962 6.51161 4.67252 7.64938 4.21036C8.78715 3.7482 10.0359 3.63147 11.2396 3.87475C12.4433 4.11802 13.5487 4.71051 14.4177 5.57824C15.0536 6.22199 15.6106 6.84231 16.1723 7.50012H14.3755C14.2097 7.50012 14.0507 7.56597 13.9335 7.68318C13.8163 7.80039 13.7505 7.95936 13.7505 8.12512C13.7505 8.29088 13.8163 8.44985 13.9335 8.56706C14.0507 8.68427 14.2097 8.75012 14.3755 8.75012H17.5005C17.6662 8.75012 17.8252 8.68427 17.9424 8.56706C18.0596 8.44985 18.1255 8.29088 18.1255 8.12512V5.00012C18.1255 4.83436 18.0596 4.67539 17.9424 4.55818C17.8252 4.44097 17.6662 4.37512 17.5005 4.37512Z" fill="#7A7A7C"/>
</g>
</svg>
