<svg width="current" height="current" viewBox="0 0 24 24" fill="current" xmlns="http://www.w3.org/2000/svg">
<path fill-rule="evenodd" clip-rule="evenodd" d="M11.4441 21.833L7.57582 19.6571C7.52942 19.6356 7.48503 19.6105 7.44295 19.5824L3.51 17.3701C3.19 17.1901 3 16.8601 3 16.5001V7.50012C3 7.20282 3.12267 6.93135 3.33688 6.74795C3.42304 6.66878 3.52157 6.60708 3.62738 6.56409L7.3815 4.4524C7.46253 4.38823 7.55254 4.33801 7.64793 4.30253L11.51 2.13012C11.81 1.95012 12.2 1.95012 12.51 2.13012L16.3344 4.28132C16.4587 4.3217 16.5753 4.38656 16.6767 4.47389L20.4212 6.58017C20.6069 6.66389 20.7694 6.80614 20.8802 7.00009C20.9949 7.20395 21.032 7.43127 21 7.6468V11.6178C21.0821 11.8416 21.079 12.0831 21 12.3V16.5001C20.99 16.8601 20.8 17.1901 20.49 17.3701L12.5188 21.8539C12.3678 21.9462 12.1908 21.9996 12.002 22L12 22.0001L11.9979 22C11.7916 21.9996 11.6016 21.9381 11.4441 21.833ZM15.9919 6.3913L17.9652 7.49916L12.0112 10.8483L6.04595 7.49289L8.00022 6.39571L11.5104 8.3702C11.6504 8.4502 11.8204 8.4902 12.0004 8.5002L11.9794 8.4802C12.1594 8.4802 12.3394 8.4402 12.5094 8.3502L15.9919 6.3913ZM13.9678 5.25489L12 4.15012L10.0427 5.24899L12.0104 6.3702L13.9678 5.25489ZM11 19.2887L8.98998 18.1602V13.9901C8.97998 13.6101 8.76998 13.2601 8.43998 13.1001L5 11.3801V9.20704L11 12.582V19.2887ZM6.99998 14.6201V17.043L5 15.9201V13.6172L6.99998 14.6201ZM19 11.385V9.2196L13 12.5946V19.2887L15 18.1658V14C15 13.62 15.21 13.27 15.55 13.11L19 11.385ZM16.98 17.0542V14.61L19 13.597V15.9201L16.98 17.0542Z" fill="current"/>
</svg>
