<svg width="current" height="current" viewBox="0 0 24 24" fill="none" xmlns="http://www.w3.org/2000/svg">
<path fill-rule="evenodd" clip-rule="evenodd" d="M20.66 7.2603C20.66 7.1903 20.56 7.1203 20.51 7.0503L20.42 6.9503C20.1872 6.66279 19.8934 6.43054 19.56 6.2703L13.16 3.2703V3.2703C12.4429 2.93985 11.6171 2.93985 10.9 3.2703L4.5 6.2703H4.5C4.16826 6.43326 3.87508 6.66508 3.64 6.9503L3.52 7.0003H3.52C3.46183 7.06043 3.41144 7.12762 3.37 7.2003L3.37 7.2003C3.13144 7.57751 3.00327 8.01399 3 8.4603V15.5203L3 15.5203C3.00273 16.4944 3.57318 17.3774 4.46 17.7803L10.86 20.7803H10.86C11.5799 21.1138 12.4101 21.1138 13.13 20.7803L19.53 17.7803C20.4142 17.3834 20.9877 16.5094 21 15.5403V8.4603V8.4603C20.9949 8.03725 20.8775 7.62315 20.66 7.2603L20.66 7.2603ZM11.7089 5.06032C11.8939 4.98022 12.1039 4.98022 12.2889 5.06032L17.6189 7.54032L11.9989 10.1503L6.37891 7.54032L11.7089 5.06032ZM5.3 16.0003C5.12192 15.9312 5.00333 15.7613 5 15.5703V9.1003L11 11.8903V18.6103L5.3 16.0003ZM18.69 16.0003L13 18.6103V11.8903L19 9.1003V15.5403V15.5403C19.0047 15.7439 18.8804 15.9282 18.69 16.0003L18.69 16.0003Z" fill="current"/>
</svg>
