<svg width="current" height="current" viewBox="0 0 13 12" fill="current" xmlns="http://www.w3.org/2000/svg">
<path d="M11.6562 0.5H1.34375C1.09511 0.5 0.856653 0.605357 0.680837 0.792893C0.505022 0.98043 0.40625 1.23478 0.40625 1.5V10.5C0.40625 10.7652 0.505022 11.0196 0.680837 11.2071C0.856653 11.3946 1.09511 11.5 1.34375 11.5H11.6562C11.9049 11.5 12.1433 11.3946 12.3192 11.2071C12.495 11.0196 12.5938 10.7652 12.5938 10.5V1.5C12.5938 1.23478 12.495 0.98043 12.3192 0.792893C12.1433 0.605357 11.9049 0.5 11.6562 0.5ZM11.6562 10.5H1.34375V1.5H11.6562V10.5ZM9.78125 4C9.78125 4.13261 9.73186 4.25979 9.64396 4.35355C9.55605 4.44732 9.43682 4.5 9.3125 4.5H3.6875C3.56318 4.5 3.44395 4.44732 3.35604 4.35355C3.26814 4.25979 3.21875 4.13261 3.21875 4C3.21875 3.86739 3.26814 3.74021 3.35604 3.64645C3.44395 3.55268 3.56318 3.5 3.6875 3.5H9.3125C9.43682 3.5 9.55605 3.55268 9.64396 3.64645C9.73186 3.74021 9.78125 3.86739 9.78125 4ZM9.78125 6C9.78125 6.13261 9.73186 6.25979 9.64396 6.35355C9.55605 6.44732 9.43682 6.5 9.3125 6.5H3.6875C3.56318 6.5 3.44395 6.44732 3.35604 6.35355C3.26814 6.25979 3.21875 6.13261 3.21875 6C3.21875 5.86739 3.26814 5.74021 3.35604 5.64645C3.44395 5.55268 3.56318 5.5 3.6875 5.5H9.3125C9.43682 5.5 9.55605 5.55268 9.64396 5.64645C9.73186 5.74021 9.78125 5.86739 9.78125 6ZM9.78125 8C9.78125 8.13261 9.73186 8.25979 9.64396 8.35355C9.55605 8.44732 9.43682 8.5 9.3125 8.5H3.6875C3.56318 8.5 3.44395 8.44732 3.35604 8.35355C3.26814 8.25979 3.21875 8.13261 3.21875 8C3.21875 7.86739 3.26814 7.74021 3.35604 7.64645C3.44395 7.55268 3.56318 7.5 3.6875 7.5H9.3125C9.43682 7.5 9.55605 7.55268 9.64396 7.64645C9.73186 7.74021 9.78125 7.86739 9.78125 8Z" fill="current"/>
</svg>
