<svg width="current" height="current" viewBox="0 0 16 18" fill="current" xmlns="http://www.w3.org/2000/svg">
<path d="M14.25 6.25H11.75V4.375C11.75 3.38044 11.3549 2.42661 10.6517 1.72335C9.94839 1.02009 8.99456 0.625 8 0.625C7.00544 0.625 6.05161 1.02009 5.34835 1.72335C4.64509 2.42661 4.25 3.38044 4.25 4.375V6.25H1.75C1.41848 6.25 1.10054 6.3817 0.866116 6.61612C0.631696 6.85054 0.5 7.16848 0.5 7.5V16.25C0.5 16.5815 0.631696 16.8995 0.866116 17.1339C1.10054 17.3683 1.41848 17.5 1.75 17.5H14.25C14.5815 17.5 14.8995 17.3683 15.1339 17.1339C15.3683 16.8995 15.5 16.5815 15.5 16.25V7.5C15.5 7.16848 15.3683 6.85054 15.1339 6.61612C14.8995 6.3817 14.5815 6.25 14.25 6.25ZM5.5 4.375C5.5 3.71196 5.76339 3.07607 6.23223 2.60723C6.70107 2.13839 7.33696 1.875 8 1.875C8.66304 1.875 9.29893 2.13839 9.76777 2.60723C10.2366 3.07607 10.5 3.71196 10.5 4.375V6.25H5.5V4.375ZM14.25 16.25H1.75V7.5H14.25V16.25ZM8.9375 11.875C8.9375 12.0604 8.88252 12.2417 8.7795 12.3958C8.67649 12.55 8.53007 12.6702 8.35877 12.7411C8.18746 12.8121 7.99896 12.8307 7.8171 12.7945C7.63525 12.7583 7.4682 12.669 7.33709 12.5379C7.20598 12.4068 7.11669 12.2398 7.08051 12.0579C7.04434 11.876 7.06291 11.6875 7.13386 11.5162C7.20482 11.3449 7.32498 11.1985 7.47915 11.0955C7.63332 10.9925 7.81458 10.9375 8 10.9375C8.24864 10.9375 8.4871 11.0363 8.66291 11.2121C8.83873 11.3879 8.9375 11.6264 8.9375 11.875Z" fill="current"/>
</svg>
