<svg width="current" height="current" viewBox="0 0 24 24" fill="current" xmlns="http://www.w3.org/2000/svg">
<path fill-rule="evenodd" clip-rule="evenodd" d="M17 3C18.5977 3 19.9037 4.24892 19.9949 5.82373L20 6V18C20 19.5977 18.7511 20.9037 17.1763 20.9949L17 21H10V22C10 22.5523 9.55228 23 9 23C8.48716 23 8.06449 22.614 8.00673 22.1166L8 22V21H6C4.94564 21 4.08183 20.1841 4.00549 19.1493L4 19V5C4 3.94564 4.81588 3.08183 5.85074 3.00549L6 3H17ZM8 5H6V19H8V5ZM10 5H17L17.1166 5.00673C17.614 5.06449 18 5.48716 18 6V18L17.9933 18.1166C17.9355 18.614 17.5128 19 17 19H10V5ZM15 7C15.5523 7 16 7.44772 16 8C16 8.51284 15.614 8.93551 15.1166 8.99327L15 9H13C12.4477 9 12 8.55228 12 8C12 7.48716 12.386 7.06449 12.8834 7.00673L13 7H15ZM16 12C16 11.4477 15.5523 11 15 11H13L12.8834 11.0067C12.386 11.0645 12 11.4872 12 12C12 12.5523 12.4477 13 13 13H15L15.1166 12.9933C15.614 12.9355 16 12.5128 16 12Z" fill="current"/>
</svg>
