<svg width="current" height="current" viewBox="0 0 24 24" fill="current" xmlns="http://www.w3.org/2000/svg">
<path fill-rule="evenodd" clip-rule="evenodd" d="M12.8703 22.0003C12.3874 21.9998 11.9241 21.8094 11.5803 21.4703L5.1703 15.0503C5.00581 14.8868 4.9033 14.6711 4.8803 14.4403L4.0003 5.0903C3.97303 4.79376 4.07934 4.50049 4.2903 4.2903C4.50049 4.07934 4.79376 3.97303 5.0903 4.0003L14.4403 4.8803C14.6711 4.9033 14.8868 5.00581 15.0503 5.1703L21.4703 11.5803C22.1785 12.2906 22.1785 13.44 21.4703 14.1503L14.1503 21.4703C13.8102 21.8088 13.3502 21.9993 12.8703 22.0003ZM6.8703 13.8903L12.8703 19.8903L19.9203 12.8403L13.9203 6.8403L6.1103 6.1103L6.8703 13.8903ZM11.561 11.561C12.1468 10.9752 12.1468 10.0254 11.561 9.43964C10.9752 8.85386 10.0255 8.85386 9.43968 9.43964C8.8539 10.0254 8.8539 10.9752 9.43968 11.561C10.0255 12.1467 10.9752 12.1467 11.561 11.561Z" fill="current"/>
</svg>
