<svg width="current" height="current" viewBox="0 0 24 24" fill="current" xmlns="http://www.w3.org/2000/svg">
<path fill-rule="evenodd" clip-rule="evenodd" d="M17.3 11.43C16.7755 11.2665 16.2174 11.5568 16.05 12.08C15.0804 15.0445 12.2988 17.0366 9.18 17C5.26639 17.0445 2.05487 13.9135 2 10C2.05487 6.08652 5.26639 2.95552 9.18 3C10.8776 2.9959 12.5229 3.58681 13.83 4.67L11.66 4.31C11.115 4.22033 10.6006 4.58942 10.5109 5.13437C10.5106 5.13625 10.5103 5.13812 10.51 5.14C10.4203 5.68496 10.7894 6.19942 11.3344 6.28909C11.3362 6.2894 11.3381 6.2897 11.34 6.29L15.58 6.99H15.75C15.866 6.98986 15.981 6.96956 16.09 6.93C16.1266 6.91609 16.1605 6.89578 16.19 6.87C16.2617 6.84334 16.3291 6.80628 16.39 6.76L16.48 6.65C16.48 6.6 16.57 6.56 16.61 6.5C16.65 6.44 16.61 6.4 16.66 6.36C16.6876 6.30176 16.711 6.24161 16.73 6.18L17.48 2.18C17.5849 1.62771 17.2223 1.09493 16.67 0.989999C16.1177 0.885065 15.5849 1.24772 15.48 1.8L15.21 3.25C13.536 1.79924 11.3952 1.00043 9.18 0.999999C4.16186 0.955581 0.05495 4.98197 0 10C0.0549545 15.018 4.16187 19.0444 9.18001 19C13.1898 19.0616 16.7693 16.4967 18 12.68C18.1569 12.1505 17.8548 11.594 17.3253 11.4371C17.3169 11.4346 17.3085 11.4323 17.3 11.43Z" fill="current"/>
</svg>
