<svg width="current" height="current" viewBox="0 0 24 24" fill="current" xmlns="http://www.w3.org/2000/svg">
<path fill-rule="evenodd" clip-rule="evenodd" d="M20.9906 10.8625C20.4258 6.79842 17.2111 3.61498 13.1418 3.0899C10.0031 2.68492 6.95488 3.93858 5.00072 6.27103L5.00012 5.00013L4.99339 4.88351C4.93563 4.38617 4.51296 4.00013 4.00012 4.00013C3.44784 4.00013 3.00012 4.44784 3.00012 5.00013V9.00013L3.00685 9.11675C3.06462 9.61409 3.48729 10.0001 4.00012 10.0001H8.00012L8.11674 9.9934C8.61408 9.93563 9.00012 9.51296 9.00012 9.00013L8.99339 8.88351C8.93563 8.38617 8.51296 8.00013 8.00012 8.00013L6.19018 8.00066C7.68467 5.89764 10.2442 4.7326 12.8858 5.07346C16.0608 5.48314 18.569 7.96691 19.0096 11.1378C19.0857 11.6848 19.5907 12.0666 20.1378 11.9906C20.6848 11.9146 21.0666 11.4095 20.9906 10.8625ZM11.1144 18.9268C7.93941 18.5171 5.43126 16.0333 4.9906 12.8625C4.91458 12.3155 4.4095 11.9336 3.86247 12.0096C3.31545 12.0857 2.93362 12.5907 3.00964 13.1378C3.57443 17.2018 6.7891 20.3853 10.8585 20.9104C13.9976 21.3154 17.0462 20.0613 19.0004 17.7282L19.0001 19.0001L19.0069 19.1167C19.0646 19.6141 19.4873 20.0001 20.0001 20.0001C20.5524 20.0001 21.0001 19.5524 21.0001 19.0001V15.0001L20.9934 14.8835C20.9356 14.3862 20.513 14.0001 20.0001 14.0001H16.0001L15.8835 14.0069C15.3862 14.0646 15.0001 14.4873 15.0001 15.0001L15.0069 15.1167C15.0646 15.6141 15.4873 16.0001 16.0001 16.0001L17.8093 16.0006C16.3148 18.103 13.7556 19.2676 11.1144 18.9268ZM12.0001 8.00013C12.513 8.00013 12.9356 8.38617 12.9934 8.88351L13.0001 9.00013V12.0001C13.0001 12.5524 12.5524 13.0001 12.0001 13.0001C11.4873 13.0001 11.0646 12.6141 11.0069 12.1167L11.0001 12.0001V9.00013C11.0001 8.44784 11.4478 8.00013 12.0001 8.00013ZM13.0101 15.0001C13.0101 14.4478 12.5624 14.0001 12.0101 14.0001L11.8835 14.0069C11.3862 14.0646 11.0001 14.4873 11.0001 15.0001C11.0001 15.5524 11.4478 16.0001 12.0001 16.0001L12.1267 15.9934C12.6241 15.9356 13.0101 15.513 13.0101 15.0001Z" fill="current"/>
</svg>
