<svg width="current" height="current" viewBox="0 0 24 24" fill="current" xmlns="http://www.w3.org/2000/svg">
<path fill-rule="evenodd" clip-rule="evenodd" d="M9.35315 4.08124C9.23706 4.55865 8.69389 4.78376 8.27248 4.52754C5.83391 3.04292 3.04354 5.83396 4.52896 8.27226C4.64951 8.46998 4.66835 8.713 4.57986 8.9266C4.49137 9.14019 4.30618 9.29868 4.08148 9.35312C1.30622 10.0264 1.30622 13.9736 4.08121 14.6468C4.30516 14.7013 4.49012 14.8597 4.57851 15.0732C4.6669 15.2867 4.64811 15.5295 4.52792 15.7268C3.04288 18.1661 5.83393 20.9564 8.27223 19.471C8.46995 19.3505 8.71296 19.3316 8.92656 19.4201C9.14016 19.5086 9.29864 19.6938 9.35309 19.9185C10.0264 22.6937 13.9736 22.6937 14.6468 19.9188C14.7012 19.6948 14.8597 19.5098 15.0732 19.4215C15.2866 19.3331 15.5295 19.3519 15.7268 19.472C18.166 20.9571 20.9564 18.166 19.471 15.7277C19.3504 15.53 19.3316 15.287 19.4201 15.0734C19.5086 14.8598 19.6937 14.7013 19.9184 14.6469C22.6937 13.9736 22.6937 10.0264 19.9187 9.35319C19.6948 9.29873 19.5098 9.14027 19.4214 8.92681C19.333 8.71334 19.3518 8.47051 19.472 8.2732C20.9571 5.83394 18.166 3.04357 15.7277 4.52899C15.53 4.64955 15.287 4.66839 15.0734 4.5799C14.8598 4.4914 14.7013 4.30622 14.6468 4.08124C13.9736 1.30625 10.0264 1.30625 9.35315 4.08124ZM12.7031 4.55248C12.9079 5.3979 13.5042 6.09465 14.3079 6.4276C15.1115 6.76055 16.0258 6.68966 16.7685 6.23681C17.3881 5.85937 18.0943 6.52202 17.809 7.14796L17.7638 7.23298C17.3117 7.97519 17.241 8.88882 17.5736 9.69195C17.9061 10.4951 18.602 11.0913 19.4467 11.2967C20.1842 11.4756 20.1842 12.5244 19.4472 12.7032C18.6021 12.908 17.9053 13.5043 17.5724 14.3079C17.2394 15.1115 17.3103 16.0259 17.7632 16.7686C18.1406 17.3882 17.4779 18.0943 16.852 17.809L16.767 17.7638C16.0248 17.3118 15.1111 17.241 14.308 17.5736C13.5049 17.9062 12.9087 18.6021 12.7033 19.4467C12.5244 20.1843 11.4756 20.1843 11.2968 19.4472C11.092 18.6021 10.4957 17.9054 9.69207 17.5724C8.88843 17.2395 7.9741 17.3103 7.23138 17.7632C6.61181 18.1406 5.90564 17.478 6.19097 16.852L6.23612 16.767C6.6882 16.0248 6.75892 15.1112 6.42636 14.308C6.0938 13.5049 5.39791 12.9087 4.55326 12.7033C3.81571 12.5244 3.81571 11.4756 4.55272 11.2968C5.39787 11.092 6.09461 10.4957 6.42756 9.6921C6.76051 8.88846 6.68962 7.97413 6.23678 7.23142C5.84218 6.58368 6.58438 5.8413 7.23295 6.23616C8.81116 7.19571 10.8606 6.34635 11.2966 4.55329C11.4662 3.85457 12.4164 3.81779 12.6679 4.44251L12.7031 4.55248ZM12 8C9.79083 8 7.99997 9.79086 7.99997 12C7.99997 14.2091 9.79083 16 12 16C14.2091 16 16 14.2091 16 12C16 9.79086 14.2091 8 12 8ZM12 10C13.1045 10 14 10.8954 14 12C14 13.1046 13.1045 14 12 14C10.8954 14 9.99997 13.1046 9.99997 12C9.99997 10.8954 10.8954 10 12 10Z" fill="current"/>
</svg>
