<svg width="current" height="current" viewBox="0 0 25 24" fill="none" xmlns="http://www.w3.org/2000/svg">
<path fill-rule="evenodd" clip-rule="evenodd" d="M18.6797 3H6.67969C5.02283 3 3.67969 4.34315 3.67969 6V18C3.67969 19.6569 5.02283 21 6.67969 21H18.6797C20.3365 21 21.6797 19.6569 21.6797 18V6C21.6797 4.34315 20.3365 3 18.6797 3ZM6.67969 5H18.6797C19.232 5 19.6797 5.44772 19.6797 6V18C19.6797 18.5523 19.232 19 18.6797 19H6.67969C6.1274 19 5.67969 18.5523 5.67969 18V6C5.67969 5.44772 6.1274 5 6.67969 5ZM13.673 7.88338C13.6152 7.38604 13.1925 7 12.6797 7C12.1274 7 11.6797 7.44772 11.6797 8L11.6864 8.12662C11.7442 8.62396 12.1669 9.01 12.6797 9.01C13.232 9.01 13.6797 8.56228 13.6797 8.01L13.673 7.88338ZM8.67969 11C9.19252 11 9.61519 11.386 9.67296 11.8834L9.67969 12.01C9.67969 12.5623 9.23197 13.01 8.67969 13.01C8.16685 13.01 7.74418 12.624 7.68642 12.1266L7.67969 12C7.67969 11.4477 8.1274 11 8.67969 11ZM13.673 11.8834C13.6152 11.386 13.1925 11 12.6797 11C12.1274 11 11.6797 11.4477 11.6797 12L11.6864 12.1266C11.7442 12.624 12.1669 13.01 12.6797 13.01C13.232 13.01 13.6797 12.5623 13.6797 12.01L13.673 11.8834ZM16.6797 11C17.1925 11 17.6152 11.386 17.673 11.8834L17.6797 12.01C17.6797 12.5623 17.232 13.01 16.6797 13.01C16.1669 13.01 15.7442 12.624 15.6864 12.1266L15.6797 12C15.6797 11.4477 16.1274 11 16.6797 11ZM13.673 15.8834C13.6152 15.386 13.1925 15 12.6797 15C12.1274 15 11.6797 15.4477 11.6797 16L11.6864 16.1266C11.7442 16.624 12.1669 17.01 12.6797 17.01C13.232 17.01 13.6797 16.5623 13.6797 16.01L13.673 15.8834Z" fill="current"/>
</svg>
