<svg width="current" height="current" viewBox="0 0 24 24" fill="current" xmlns="http://www.w3.org/2000/svg">
<path fill-rule="evenodd" clip-rule="evenodd" d="M8.08169 2.93373C5.23855 2.93373 2.93373 5.23855 2.93373 8.08169C2.93373 10.9248 5.23855 13.2296 8.08169 13.2296C10.9248 13.2296 13.2296 10.9248 13.2296 8.08169C13.2296 5.23855 10.9248 2.93373 8.08169 2.93373ZM1.46289 8.08169C1.46289 4.42623 4.42623 1.46289 8.08169 1.46289C11.7371 1.46289 14.7005 4.42623 14.7005 8.08169C14.7005 11.7371 11.7371 14.7005 8.08169 14.7005C4.42623 14.7005 1.46289 11.7371 1.46289 8.08169ZM6.36379 6.12104C6.36379 5.71488 6.69305 5.38562 7.09921 5.38562H8.07977C8.48593 5.38562 8.81519 5.71488 8.81519 6.12104V10.0433C8.81519 10.4495 8.48593 10.7787 8.07977 10.7787C7.67361 10.7787 7.34435 10.4495 7.34435 10.0433V6.85646H7.09921C6.69305 6.85646 6.36379 6.5272 6.36379 6.12104ZM17.2844 10.1488C17.4263 9.76825 17.8498 9.57476 18.2304 9.71664C19.2732 10.1054 20.2011 10.7509 20.9284 11.5933C21.6556 12.4357 22.1587 13.4479 22.3911 14.5363C22.6235 15.6247 22.5777 16.7541 22.258 17.8201C21.9382 18.8861 21.3549 19.8542 20.5618 20.635C19.7687 21.4158 18.7916 21.984 17.7207 22.2871C16.6499 22.5902 15.5199 22.6183 14.4353 22.369C13.3506 22.1196 12.3464 21.6008 11.5154 20.8605C10.6845 20.1202 10.0536 19.1823 9.68112 18.1335C9.54519 17.7508 9.74527 17.3303 10.128 17.1944C10.5108 17.0585 10.9312 17.2586 11.0671 17.6413C11.3568 18.457 11.8475 19.1865 12.4938 19.7623C13.1402 20.3381 13.9212 20.7416 14.7648 20.9355C15.6084 21.1295 16.4873 21.1076 17.3202 20.8718C18.1531 20.6361 18.9131 20.1942 19.5299 19.5869C20.1467 18.9796 20.6005 18.2266 20.8492 17.3975C21.0979 16.5684 21.1335 15.69 20.9527 14.8434C20.772 13.9969 20.3807 13.2097 19.815 12.5544C19.2494 11.8992 18.5277 11.3972 17.7166 11.0948C17.336 10.9529 17.1425 10.5294 17.2844 10.1488ZM16.105 13.3236C16.3942 13.0384 16.8598 13.0417 17.145 13.331L17.8314 14.0272C18.1151 14.3149 18.1134 14.7777 17.8277 15.0635L15.0625 17.8287C14.7753 18.1159 14.3097 18.1159 14.0225 17.8287C13.7353 17.5415 13.7353 17.0758 14.0225 16.7886L16.2713 14.5398L16.0976 14.3636C15.8124 14.0744 15.8157 13.6087 16.105 13.3236Z" fill="current"/>
</svg>
