<svg width="18" height="17" viewBox="0 0 18 17" fill="none" xmlns="http://www.w3.org/2000/svg">
<path id="Vector" d="M16.3612 4.22222H13.0366C12.6493 4.22222 12.334 4.53599 12.334 4.9246C12.334 5.31322 12.6493 5.62698 13.0366 5.62698H15.1427C15.5943 6.60295 15.8464 7.69018 15.8464 8.8373C15.8464 13.0687 12.4116 16.5 8.17322 16.5C3.93484 16.5 0.5 13.0687 0.5 8.8373C0.5 4.6274 3.90006 1.20943 8.1087 1.17486C8.10904 1.17486 8.10938 1.17486 8.10971 1.17486L8.17322 1.1746H8.17423H16.3612V4.22222ZM8.17322 12.1032C9.9783 12.1032 11.4427 10.6416 11.4427 8.8373C11.4427 7.03298 9.9783 5.57143 8.17322 5.57143C6.36815 5.57143 4.90378 7.03298 4.90378 8.8373C4.90378 10.6416 6.36815 12.1032 8.17322 12.1032Z" stroke="current"/>
</svg>