<svg width="current" height="current" viewBox="0 0 24 24" fill="current" xmlns="http://www.w3.org/2000/svg">
<path fill-rule="evenodd" clip-rule="evenodd" d="M17.0002 10.0071C16.7302 10.0071 16.4702 9.89719 16.2902 9.71729L13 6.42134V16.0036C13 16.5532 12.55 17.003 12 17.003C11.44 17.003 11 16.5532 11 16.0036V6.42181L7.71023 9.71729C7.31023 10.1071 6.68023 10.1071 6.29023 9.71729C5.89023 9.31753 5.89023 8.6879 6.29023 8.29813L11.2767 3.3146C11.2828 3.3083 11.2889 3.30208 11.2952 3.29595C11.6757 2.90133 12.3119 2.903 12.7002 3.29109L17.7002 8.28814V8.27814C18.0902 8.65792 18.0902 9.29754 17.7002 9.68731H17.6902C17.5002 9.8672 17.2402 9.97714 16.9802 9.97714L17.0002 10.0071ZM21 19.0018C21 20.6508 19.65 22 18 22H6C4.34 22 3 20.6508 3 19.0018V17.003C3 16.4433 3.44 16.0035 4 16.0035C4.55 16.0035 5 16.4433 5 17.003V19.0018C5 19.5514 5.44 20.0012 6 20.0012H18C18.55 20.0012 19 19.5514 19 19.0018V17.003C19 16.4433 19.44 16.0035 20 16.0035C20.55 16.0035 21 16.4433 21 17.003V19.0018Z" fill="current"/>
</svg>
