<svg width="1004" height="978" viewBox="0 0 1004 978" fill="none" xmlns="http://www.w3.org/2000/svg">
<g opacity="0.7">
<path d="M21.3486 690.285C-10.6892 778.417 3.38464 849.306 3.38464 849.306C18.3738 914.548 55.446 940.161 72.838 948.43C90.2299 956.698 115.174 958.513 131.421 959.118C147.669 959.723 231.654 964.261 231.654 964.261C236.422 964.547 240.979 964.681 245.365 964.681C223.397 964.194 195.611 935.203 182.224 883.894C168.837 832.567 189.318 778.821 208.541 722.755C227.764 666.689 252.593 620.304 252.593 620.304C217.237 598.523 155.908 602.96 115.631 634.825C75.3553 666.689 62.769 713.377 62.769 713.377L64.142 705.008C64.142 705.008 64.142 704.974 64.142 704.924C64.5806 701.663 79.7224 597.078 196.966 569.18C196.966 569.18 204.346 567.549 216.837 566.726C214.338 566.726 112.065 566.507 45.3771 628.926C36.3188 650.875 27.9852 671.983 21.3297 690.285H21.3486Z" fill="url(#paint0_linear_1114_3)" fill-opacity="0.03"/>
<path d="M274.903 570.33C251.256 565.876 230.87 565.792 216.891 566.717H216.853C204.362 567.54 196.982 569.17 196.982 569.17C79.739 597.069 64.5974 701.654 64.1588 704.915C99.8962 587.22 199.385 579.557 199.385 579.557C231.175 576.313 258.35 579.002 282.073 585.439C315.465 594.497 342.03 611.001 365.009 628.917C376.47 637.824 387.035 647.118 397.104 655.992C412.417 669.487 446.4 701.94 484.464 738.746C488.202 742.376 491.997 746.04 495.811 749.737C566.065 817.853 644.94 895.582 644.94 895.582C696.658 943.664 744.905 963.597 775.608 971.848C773.968 970.806 689.506 917.816 613.359 841.129C536.469 763.686 514.843 740.09 514.843 740.09C455.001 682.814 384.06 623.32 384.06 623.32C346.969 591.153 307.78 576.515 274.903 570.33Z" fill="url(#paint1_linear_1114_3)" fill-opacity="0.03"/>
<path d="M124.555 449.078C124.555 449.078 79.8736 545.176 45.3948 628.922C112.083 566.503 214.356 566.705 216.854 566.722H216.893C230.871 565.797 251.257 565.881 274.904 570.335L317.468 479.531C318.841 476.472 496.651 86.6172 501.095 75.4746C503.765 68.7689 510.439 58.8028 516.503 50.6013C520.565 45.1057 524.341 40.3999 526.477 37.9798C531.798 31.9296 532.141 27.0894 525.619 26.9381C519.097 26.7869 375.442 24.0642 364.286 24.2155C353.13 24.3668 338.236 23.6273 328.434 32.5346C310.565 49.677 300.954 68.5336 300.954 68.5336C300.954 68.5336 216.086 242.849 165.365 356.223C149.185 392.391 124.517 449.095 124.517 449.095L124.555 449.078Z" fill="url(#paint2_linear_1114_3)" fill-opacity="0.03"/>
<path d="M203.307 841.795C202.392 893.844 221.957 939.507 258 944.347C294.043 949.187 321.618 925.692 341.985 902.701C362.352 879.71 471.41 759.967 471.41 759.967C433.346 723.161 399.363 690.708 384.049 677.213C373.98 668.339 363.415 659.045 351.954 650.138C351.954 650.138 300.871 693.657 289.429 703.942C277.987 714.228 229.013 752.756 212.441 782.755C207.483 802.821 203.612 823.947 203.307 841.795Z" fill="url(#paint3_linear_1114_3)" fill-opacity="0.03"/>
<path d="M317.468 479.531L274.904 570.335C307.781 576.52 346.971 591.157 384.063 623.324C384.063 623.324 455.003 682.818 514.846 740.094C514.846 740.094 536.471 763.69 613.362 841.133C689.509 917.82 773.97 970.81 775.61 971.852H775.63C796.683 977.499 809.479 977.667 809.479 977.667C921.611 983.314 980.653 916.156 997.587 846.982C1006 812.663 1005.42 775.286 999.971 739.859C999.971 739.859 994.726 809.672 930.193 830.243C865.66 850.814 798.38 819.655 764.74 792.126C731.101 764.598 565.305 594.283 521.367 557.376C477.43 520.47 412 478.723 325.841 478.118C320.673 478.807 317.775 479.463 317.489 479.513L317.468 479.531Z" fill="url(#paint4_linear_1114_3)" fill-opacity="0.03"/>
<path d="M830.396 807.576C833.619 808.753 836.747 809.728 839.741 810.434C839.741 810.434 846.663 812.501 851.125 807.358C855.588 802.215 863.483 780.636 861.195 756.032C858.906 731.427 846.549 671.53 812.68 602.557C778.812 533.584 665.535 294.195 646.999 259.104C628.463 224.012 591.734 143.847 580.406 122.973C574.933 112.873 559.743 79.7094 535.524 69.6322L530.538 75.9712L515.79 102.43L501.095 137.216L671.796 507.96L718.098 602.551L757.785 700.678L788.212 767.522C788.212 767.522 804.385 797.997 830.396 807.576Z" fill="url(#paint5_linear_1114_3)" fill-opacity="0.03"/>
<path d="M644.361 507.96C644.361 507.96 575.917 517.127 531.007 539.513C554.749 556.521 603.721 604.973 603.721 604.973C603.721 604.973 591.454 592.87 621.833 625.189C637.185 608.231 687.768 592.072 687.768 592.072L644.361 507.96Z" fill="url(#paint6_linear_1114_3)" fill-opacity="0.03"/>
<path d="M830.394 807.571C884.972 828.663 935.661 818.579 965.086 767.522C994.263 716.901 971.017 640.853 970.082 637.895C970.082 637.861 970.063 637.844 970.063 637.811C945.348 580.653 881.101 439.094 881.101 439.094L866.798 408.405L866.646 408.12C862.679 400.439 777.874 236.293 767.481 218.864C756.84 201.016 721.484 135.068 699.172 103.002C676.86 70.9358 646.825 40.0795 607.693 36.7518C606.987 36.6846 606.301 36.6342 605.595 36.6006C571.002 34.5334 547.031 55.0875 535.398 69.6921C546.382 74.7508 554.887 83.0026 562.001 92.515C569.152 102.061 574.93 112.867 580.403 122.968C591.731 143.841 628.46 224.007 646.996 259.099C665.532 294.19 778.809 533.578 812.677 602.551C846.546 671.524 858.903 731.422 861.192 756.026C863.48 780.631 855.585 802.21 851.123 807.352C846.66 812.495 839.738 810.428 839.738 810.428C836.744 809.722 833.616 808.747 830.394 807.571Z" fill="url(#paint7_linear_1114_3)" fill-opacity="0.03"/>
<path d="M699.177 103.001C721.489 135.068 756.845 201.016 767.486 218.864C777.88 236.292 862.685 400.439 866.651 408.119L736.25 128.413C719.773 94.5311 695.058 57.9271 695.058 57.9271C656.918 3.13868 597.743 0.33203 583.555 0.500093C579.131 0.550512 574.707 0.60093 570.301 0.60093H429.716C386.122 -1.21415 360.377 11.0376 360.377 11.0376C347.886 16.1971 337.188 24.1465 328.473 32.516C338.275 23.6087 353.169 24.3482 364.325 24.1969C375.481 24.0457 519.136 26.7683 525.658 26.9195C532.18 27.0708 531.837 31.911 526.516 37.9612C524.38 40.3813 520.605 45.0871 516.543 50.5827C546.921 30.8858 591.831 34.8017 605.6 36.5999C606.306 36.6335 606.992 36.684 607.698 36.7512C646.83 40.0788 676.865 70.9351 699.177 103.001Z" fill="url(#paint8_linear_1114_3)" fill-opacity="0.03"/>
</g>
<defs>
<linearGradient id="paint0_linear_1114_3" x1="681.384" y1="107.341" x2="216.753" y2="991.211" gradientUnits="userSpaceOnUse">
<stop offset="0.254864" stop-color="white"/>
<stop offset="1" stop-color="#181819"/>
</linearGradient>
<linearGradient id="paint1_linear_1114_3" x1="681.384" y1="107.341" x2="216.753" y2="991.211" gradientUnits="userSpaceOnUse">
<stop offset="0.254864" stop-color="white"/>
<stop offset="1" stop-color="#181819"/>
</linearGradient>
<linearGradient id="paint2_linear_1114_3" x1="681.384" y1="107.341" x2="216.753" y2="991.211" gradientUnits="userSpaceOnUse">
<stop offset="0.254864" stop-color="white"/>
<stop offset="1" stop-color="#181819"/>
</linearGradient>
<linearGradient id="paint3_linear_1114_3" x1="681.384" y1="107.341" x2="216.753" y2="991.211" gradientUnits="userSpaceOnUse">
<stop offset="0.254864" stop-color="white"/>
<stop offset="1" stop-color="#181819"/>
</linearGradient>
<linearGradient id="paint4_linear_1114_3" x1="681.384" y1="107.341" x2="216.753" y2="991.211" gradientUnits="userSpaceOnUse">
<stop offset="0.254864" stop-color="white"/>
<stop offset="1" stop-color="#181819"/>
</linearGradient>
<linearGradient id="paint5_linear_1114_3" x1="681.384" y1="107.341" x2="216.753" y2="991.211" gradientUnits="userSpaceOnUse">
<stop offset="0.254864" stop-color="white"/>
<stop offset="1" stop-color="#181819"/>
</linearGradient>
<linearGradient id="paint6_linear_1114_3" x1="681.384" y1="107.341" x2="216.753" y2="991.211" gradientUnits="userSpaceOnUse">
<stop offset="0.254864" stop-color="white"/>
<stop offset="1" stop-color="#181819"/>
</linearGradient>
<linearGradient id="paint7_linear_1114_3" x1="681.384" y1="107.341" x2="216.753" y2="991.211" gradientUnits="userSpaceOnUse">
<stop offset="0.254864" stop-color="white"/>
<stop offset="1" stop-color="#181819"/>
</linearGradient>
<linearGradient id="paint8_linear_1114_3" x1="681.384" y1="107.341" x2="216.753" y2="991.211" gradientUnits="userSpaceOnUse">
<stop offset="0.254864" stop-color="white"/>
<stop offset="1" stop-color="#181819"/>
</linearGradient>
</defs>
</svg>
