<svg width="current" height="current" viewBox="0 0 24 24" fill="current" xmlns="http://www.w3.org/2000/svg">
<path fill-rule="evenodd" clip-rule="evenodd" d="M8.7 2H15.3C15.8624 2 16.3156 2.20142 16.7071 2.59289L21.4071 7.29289C21.7986 7.68436 22 8.13756 22 8.7V15.3C22 15.8624 21.7986 16.3156 21.4071 16.7071L16.7071 21.4071C16.3156 21.7986 15.8624 22 15.3 22H8.7C8.13756 22 7.68436 21.7986 7.29289 21.4071L2.59289 16.7071C2.20142 16.3156 2 15.8624 2 15.3V8.7C2 8.13756 2.20142 7.68436 2.59289 7.29289L7.29289 2.59289C7.68436 2.20142 8.13756 2 8.7 2ZM15.287 4H8.712L4 8.712V15.288L4.00711 15.2929L8.70711 19.9929L8.712 20H15.287L15.2929 19.9929L19.9929 15.2929L20 15.287V8.712L19.9929 8.70711L15.287 4ZM12 7C12.5128 7 12.9355 7.38604 12.9933 7.88338L13 8V12C13 12.5523 12.5523 13 12 13C11.4872 13 11.0645 12.614 11.0067 12.1166L11 12V8C11 7.44772 11.4477 7 12 7ZM13.01 16C13.01 15.4477 12.5623 15 12.01 15L11.8834 15.0067C11.386 15.0645 11 15.4872 11 16C11 16.5523 11.4477 17 12 17L12.1266 16.9933C12.624 16.9355 13.01 16.5128 13.01 16Z" fill="current"/>
</svg>
