<svg width="current" height="current" viewBox="0 0 24 24" fill="current" xmlns="http://www.w3.org/2000/svg">
<path fill-rule="evenodd" clip-rule="evenodd" d="M2 12C2 6.47715 6.47715 2 12 2C17.5228 2 22 6.47715 22 12C22 17.5228 17.5228 22 12 22C6.47715 22 2 17.5228 2 12ZM20 12C20 7.58172 16.4183 4 12 4C7.58172 4 4 7.58172 4 12C4 16.4183 7.58172 20 12 20C16.4183 20 20 16.4183 20 12ZM12 7C12.5128 7 12.9355 7.38604 12.9933 7.88338L13 8V12C13 12.5523 12.5523 13 12 13C11.4872 13 11.0645 12.614 11.0067 12.1166L11 12V8C11 7.44772 11.4477 7 12 7ZM13.01 16C13.01 15.4477 12.5623 15 12.01 15L11.8834 15.0067C11.386 15.0645 11 15.4872 11 16C11 16.5523 11.4477 17 12 17L12.1266 16.9933C12.624 16.9355 13.01 16.5128 13.01 16Z" fill="current"/>
</svg>
