<svg fill="current" xmlns="http://www.w3.org/2000/svg">
<path fill-rule="evenodd" clip-rule="evenodd" d="M0 10C0 15.52 4.47 20 10 20C15.52 20 20 15.52 20 10C20 4.47 15.52 0 10 0C4.47 0 0 4.47 0 10ZM2 10C2 5.58 5.58 2 10 2C14.41 2 18 5.58 18 10C18 14.41 14.41 18 10 18C5.58 18 2 14.41 2 10ZM5.06027 9.64052C5.11039 9.51105 5.18596 9.39358 5.28109 9.29846C5.2937 9.28552 5.30657 9.27301 5.31968 9.26091L9.28132 5.29927C9.68132 4.89927 10.3113 4.89927 10.7013 5.29827C11.1013 5.68827 11.1013 6.31827 10.7023 6.71827L8.41168 9.00891H13.9912C14.5512 9.00891 14.9912 9.44891 14.9912 10.0089C14.9912 10.5589 14.5512 11.0089 13.9912 11.0089H8.43154L10.7111 13.2885C11.1111 13.6785 11.1111 14.3085 10.7121 14.7085C10.3221 15.0985 9.69209 15.0985 9.29209 14.7085L5.39124 10.8076C5.1487 10.6247 4.99119 10.3343 4.99119 10.0089C4.99119 10.0087 4.99119 10.0085 4.99119 10.0084L4.99109 10.0085C4.99109 9.97846 4.99244 9.9486 4.9951 9.91895C5.00366 9.82112 5.02605 9.7277 5.06027 9.64052Z" fill="current"/>
</svg>
