<svg width="current" height="current" viewBox="0 0 24 24" fill="current" xmlns="http://www.w3.org/2000/svg">
<path fill-rule="evenodd" clip-rule="evenodd" d="M5.50961 20.87C5.65907 20.9547 5.82783 20.9995 5.99961 21C6.17662 20.9951 6.34917 20.9434 6.49962 20.85L11.8296 17.65L17.4996 20.86C17.809 21.0386 18.1902 21.0386 18.4996 20.86C18.8072 20.6824 18.9975 20.3551 18.9996 20V5.33C19.0277 4.08205 18.0471 3.04348 16.7996 3H7.19961C5.9521 3.04348 4.97148 4.08205 4.99961 5.33V20C5.00024 20.3608 5.19513 20.6932 5.50961 20.87ZM7.71465 18C7.59195 17.9996 7.47142 17.9673 7.36468 17.9061C7.14006 17.7784 7.00087 17.5383 7.00042 17.2778V6.68278C6.98033 5.78148 7.10852 5.0314 7.99952 5H15.4283H15.9282C16.8192 5.0314 17.0197 5.78148 16.9996 6.68278V17.2778C16.998 17.5342 16.8621 17.7707 16.6425 17.8989C16.4215 18.0279 16.1492 18.0279 15.9282 17.8989L11.8786 15.5806L8.07176 17.8917C7.96431 17.9591 7.84107 17.9965 7.71465 18Z" fill="current"/>
</svg>
