<svg width="current" height="current" viewBox="0 0 20 20" fill="current" xmlns="http://www.w3.org/2000/svg">
<path d="M17.5 11.875V16.25C17.5 16.5815 17.3683 16.8995 17.1339 17.1339C16.8995 17.3683 16.5815 17.5 16.25 17.5H3.75C3.41848 17.5 3.10054 17.3683 2.86612 17.1339C2.6317 16.8995 2.5 16.5815 2.5 16.25V11.875C2.5 11.7092 2.56585 11.5503 2.68306 11.4331C2.80027 11.3158 2.95924 11.25 3.125 11.25C3.29076 11.25 3.44973 11.3158 3.56694 11.4331C3.68415 11.5503 3.75 11.7092 3.75 11.875V16.25H16.25V11.875C16.25 11.7092 16.3158 11.5503 16.4331 11.4331C16.5503 11.3158 16.7092 11.25 16.875 11.25C17.0408 11.25 17.1997 11.3158 17.3169 11.4331C17.4342 11.5503 17.5 11.7092 17.5 11.875ZM9.55781 12.3172C9.61586 12.3753 9.68479 12.4214 9.76066 12.4529C9.83654 12.4843 9.91787 12.5005 10 12.5005C10.0821 12.5005 10.1635 12.4843 10.2393 12.4529C10.3152 12.4214 10.3841 12.3753 10.4422 12.3172L13.5672 9.19219C13.6253 9.13412 13.6713 9.06518 13.7027 8.98931C13.7342 8.91344 13.7503 8.83212 13.7503 8.75C13.7503 8.66788 13.7342 8.58656 13.7027 8.51069C13.6713 8.43482 13.6253 8.36588 13.5672 8.30781C13.5091 8.24974 13.4402 8.20368 13.3643 8.17225C13.2884 8.14083 13.2071 8.12465 13.125 8.12465C13.0429 8.12465 12.9616 8.14083 12.8857 8.17225C12.8098 8.20368 12.7409 8.24974 12.6828 8.30781L10.625 10.3664V3.125C10.625 2.95924 10.5592 2.80027 10.4419 2.68306C10.3247 2.56585 10.1658 2.5 10 2.5C9.83424 2.5 9.67527 2.56585 9.55806 2.68306C9.44085 2.80027 9.375 2.95924 9.375 3.125V10.3664L7.31719 8.30781C7.19991 8.19054 7.04085 8.12465 6.875 8.12465C6.70915 8.12465 6.55009 8.19054 6.43281 8.30781C6.31554 8.42509 6.24965 8.58415 6.24965 8.75C6.24965 8.91585 6.31554 9.07491 6.43281 9.19219L9.55781 12.3172Z" fill="current"/>
</svg>
