<svg width="current" height="current" viewBox="0 0 26 24" fill="current" xmlns="http://www.w3.org/2000/svg">
<g id="Envelope">
<path id="Vector" d="M22.1937 4.5H3.61306C3.40773 4.5 3.21081 4.57902 3.06562 4.71967C2.92043 4.86032 2.83887 5.05109 2.83887 5.25V18C2.83887 18.3978 3.002 18.7794 3.29238 19.0607C3.58276 19.342 3.9766 19.5 4.38725 19.5H21.4195C21.8302 19.5 22.224 19.342 22.5144 19.0607C22.8048 18.7794 22.9679 18.3978 22.9679 18V5.25C22.9679 5.05109 22.8863 4.86032 22.7411 4.71967C22.596 4.57902 22.399 4.5 22.1937 4.5ZM12.9034 12.4828L5.60371 6H20.2031L12.9034 12.4828ZM10.0689 12L4.38725 17.0447V6.95531L10.0689 12ZM11.2147 13.0172L12.376 14.0531C12.5188 14.1801 12.7056 14.2506 12.8995 14.2506C13.0934 14.2506 13.2802 14.1801 13.4231 14.0531L14.5844 13.0172L20.1973 18H5.60371L11.2147 13.0172ZM15.7379 12L21.4195 6.95438V17.0456L15.7379 12Z" fill="current"/>
</g>
</svg>
