<svg width="current" height="current" viewBox="0 0 18 18" fill="current" xmlns="http://www.w3.org/2000/svg">
<path d="M16.5 0H1.5C1.10218 0 0.720644 0.158035 0.43934 0.43934C0.158035 0.720644 0 1.10218 0 1.5V16.5C0 16.8978 0.158035 17.2794 0.43934 17.5607C0.720644 17.842 1.10218 18 1.5 18H16.5C16.8978 18 17.2794 17.842 17.5607 17.5607C17.842 17.2794 18 16.8978 18 16.5V1.5C18 1.10218 17.842 0.720644 17.5607 0.43934C17.2794 0.158035 16.8978 0 16.5 0ZM16.5 16.5H1.5V1.5H16.5V16.5ZM5.46937 12.5306C5.39964 12.461 5.34432 12.3783 5.30658 12.2872C5.26884 12.1962 5.24941 12.0986 5.24941 12C5.24941 11.9014 5.26884 11.8038 5.30658 11.7128C5.34432 11.6217 5.39964 11.539 5.46937 11.4694L10.1897 6.75H7.5C7.30109 6.75 7.11032 6.67098 6.96967 6.53033C6.82902 6.38968 6.75 6.19891 6.75 6C6.75 5.80109 6.82902 5.61032 6.96967 5.46967C7.11032 5.32902 7.30109 5.25 7.5 5.25H12C12.1989 5.25 12.3897 5.32902 12.5303 5.46967C12.671 5.61032 12.75 5.80109 12.75 6V10.5C12.75 10.6989 12.671 10.8897 12.5303 11.0303C12.3897 11.171 12.1989 11.25 12 11.25C11.8011 11.25 11.6103 11.171 11.4697 11.0303C11.329 10.8897 11.25 10.6989 11.25 10.5V7.81031L6.53063 12.5306C6.46097 12.6004 6.37825 12.6557 6.28721 12.6934C6.19616 12.7312 6.09856 12.7506 6 12.7506C5.90144 12.7506 5.80384 12.7312 5.71279 12.6934C5.62175 12.6557 5.53903 12.6004 5.46937 12.5306Z" fill="current"/>
</svg>
