<svg fill="current" xmlns="http://www.w3.org/2000/svg">
<path fill-rule="evenodd" clip-rule="evenodd" d="M11.0833 7C11.0833 6.67784 11.3445 6.41667 11.6667 6.41667C11.9888 6.41667 12.25 6.67784 12.25 7V10.5C12.25 11.4665 11.4665 12.25 10.5 12.25H3.5C2.5335 12.25 1.75 11.4665 1.75 10.5V3.5C1.75 2.53351 2.5335 1.75 3.5 1.75H7C7.32217 1.75 7.58333 2.01117 7.58333 2.33333C7.58333 2.6555 7.32217 2.91667 7 2.91667H3.5C3.17783 2.91667 2.91667 3.17784 2.91667 3.5V10.5C2.91667 10.8222 3.17783 11.0833 3.5 11.0833H10.5C10.8222 11.0833 11.0833 10.8222 11.0833 10.5V7ZM10.2561 2.91667H9.33444C9.01227 2.91667 8.7511 2.6555 8.7511 2.33333C8.7511 2.01117 9.01227 1.75 9.33444 1.75H11.6678C11.9899 1.75 12.2511 2.01117 12.2511 2.33333V4.66667C12.2511 4.98883 11.9899 5.25 11.6678 5.25C11.3456 5.25 11.0844 4.98883 11.0844 4.66667V3.745L7.41527 7.40833L7.41189 7.41172C7.18315 7.63859 6.81381 7.63707 6.58694 7.40833L6.58355 7.40495C6.35668 7.17621 6.3582 6.80687 6.58694 6.58L10.2561 2.91667Z" fill="current"/>
</svg>
