<svg width="current" height="current" viewBox="0 0 24 24" fill="current" xmlns="http://www.w3.org/2000/svg">
<path fill-rule="evenodd" clip-rule="evenodd" d="M7 21.9997H17V21.9987C18.65 21.9987 20 20.6487 20 18.9987V7.99951V7.99867C20 7.98703 19.9998 7.97541 19.9994 7.96381C19.9954 7.84904 19.9726 7.7397 19.9338 7.63862C19.8837 7.50603 19.807 7.38572 19.71 7.28867L14.71 2.28867C14.52 2.09867 14.26 1.98867 14 1.99867V1.99951L13.9813 1.99967H7C5.34 1.99967 4 3.33967 4 4.99967V18.9997C4 20.6497 5.34 21.9997 7 21.9997ZM13 3.99967H7C6.44 3.99967 6 4.43967 6 4.99967V18.9997C6 19.5497 6.44 19.9997 7 19.9997H17C17.55 19.9997 18 19.5497 18 18.9997V8.99951H15C13.89 8.99951 13 8.09951 13 6.99951V3.99967ZM15 5.40967V6.99951H16.5898L15 5.40967ZM9.99957 17.9995C9.61957 17.9895 9.26957 17.7795 9.10957 17.4495L8.10957 15.4495C7.95957 15.1595 7.95957 14.8295 8.10957 14.5495L9.10957 12.5495C9.38957 12.0695 9.99957 11.9195 10.4796 12.1995C10.8996 12.4495 11.0696 12.9795 10.8796 13.4395L10.1096 14.9895L10.8796 16.5395C11.1196 17.0295 10.9296 17.6295 10.4396 17.8795C10.2996 17.9495 10.1396 17.9895 9.98957 17.9895L9.99957 17.9995ZM13.5497 17.8895C13.6797 17.9595 13.8397 17.9995 13.9997 17.9995L13.9797 17.9885C14.3497 17.9785 14.6997 17.7685 14.8697 17.4385L15.8697 15.4385C16.0097 15.1485 16.0097 14.8185 15.8697 14.5385L14.8697 12.5385C14.8497 12.4885 14.8297 12.4485 14.8097 12.4085C14.5197 11.9285 13.9097 11.7785 13.4397 12.0685C12.9597 12.3585 12.8097 12.9685 13.0997 13.4485H13.1097L13.8797 14.9985L13.1097 16.5485C12.8597 17.0385 13.0497 17.6385 13.5497 17.8885V17.8895Z" fill="current"/>
</svg>
