  <svg
                    width="12"
                    height="11"
                    viewBox="0 0 12 11"
                    fill="none"
                    xmlns="http://www.w3.org/2000/svg"
                  >
                    <g id="Frame" clipPath="url(#clip0_6567_27249)">
                      <g id="Subtract">
                        <path
                          fillRule="evenodd"
                          clipRule="evenodd"
                          d="M9.12352 8.31153C10.7839 6.65117 10.7839 3.95918 9.12352 2.29882C7.46316 0.638451 4.77117 0.638451 3.11081 2.29882C1.45044 3.95918 1.45044 6.65117 3.11081 8.31153C4.77117 9.9719 7.46316 9.9719 9.12352 8.31153ZM4.23828 4.90668C4.01815 4.90668 3.83969 5.08513 3.83969 5.30527C3.83969 5.52541 4.01815 5.70386 4.23828 5.70386L5.71867 5.70386L5.71867 7.18424C5.71867 7.40438 5.89712 7.58284 6.11726 7.58284C6.33739 7.58284 6.51585 7.40438 6.51585 7.18424V5.70386L7.99623 5.70386C8.21637 5.70386 8.39482 5.52541 8.39482 5.30527C8.39482 5.08513 8.21637 4.90668 7.99623 4.90668H6.51585L6.51585 3.4263C6.51585 3.20616 6.33739 3.02771 6.11726 3.02771C5.89712 3.02771 5.71867 3.20616 5.71867 3.4263L5.71867 4.90668L4.23828 4.90668Z"
                          fill="#C0C0C4"
                        />
                        <path
                          fillRule="evenodd"
                          clipRule="evenodd"
                          d="M9.12352 8.31153C10.7839 6.65117 10.7839 3.95918 9.12352 2.29882C7.46316 0.638451 4.77117 0.638451 3.11081 2.29882C1.45044 3.95918 1.45044 6.65117 3.11081 8.31153C4.77117 9.9719 7.46316 9.9719 9.12352 8.31153ZM4.23828 4.90668C4.01815 4.90668 3.83969 5.08513 3.83969 5.30527C3.83969 5.52541 4.01815 5.70386 4.23828 5.70386L5.71867 5.70386L5.71867 7.18424C5.71867 7.40438 5.89712 7.58284 6.11726 7.58284C6.33739 7.58284 6.51585 7.40438 6.51585 7.18424V5.70386L7.99623 5.70386C8.21637 5.70386 8.39482 5.52541 8.39482 5.30527C8.39482 5.08513 8.21637 4.90668 7.99623 4.90668H6.51585L6.51585 3.4263C6.51585 3.20616 6.33739 3.02771 6.11726 3.02771C5.89712 3.02771 5.71867 3.20616 5.71867 3.4263L5.71867 4.90668L4.23828 4.90668Z"
                          fill="url(#paint0_linear_6567_27249)"
                          fillOpacity="0.5"
                        />
                      </g>
                    </g>
                    <defs>
                      <linearGradient
                        id="paint0_linear_6567_27249"
                        x1="2.35922"
                        y1="3.05041"
                        x2="10.2509"
                        y2="7.18415"
                        gradientUnits="userSpaceOnUse"
                      >
                        <stop offset="0.36" stopColor="#F5BE54" />
                        <stop offset="1" />
                      </linearGradient>
                      <clipPath id="clip0_6567_27249">
                        <rect
                          width="10.6291"
                          height="10.6291"
                          fill="white"
                          transform="translate(0.802826 -0.00927734)"
                        />
                      </clipPath>
                    </defs>
                  </svg>