<svg width="current" height="current" viewBox="0 0 10 10" fill="current" xmlns="http://www.w3.org/2000/svg">
<path fill-rule="evenodd" clip-rule="evenodd" d="M0.75 4.5C0.75 2.42893 2.42893 0.75 4.5 0.75C6.57107 0.75 8.25 2.42893 8.25 4.5C8.25 6.57107 6.57107 8.25 4.5 8.25C2.42893 8.25 0.75 6.57107 0.75 4.5ZM1.5 4.5C1.5 6.15686 2.84314 7.5 4.5 7.5C6.15686 7.5 7.5 6.15686 7.5 4.5C7.5 2.84314 6.15686 1.5 4.5 1.5C2.84314 1.5 1.5 2.84314 1.5 4.5ZM4.76516 2.73483C4.91161 2.88128 4.91161 3.11872 4.76516 3.26516C4.61872 3.41161 4.38128 3.41161 4.23483 3.26516C4.08839 3.11872 4.08839 2.88128 4.23483 2.73483C4.38128 2.58839 4.61872 2.58839 4.76516 2.73483ZM4.125 4.125C4.125 3.91789 4.29289 3.75 4.5 3.75C4.70711 3.75 4.875 3.91789 4.875 4.125V6C4.875 6.20711 4.70711 6.375 4.5 6.375C4.29289 6.375 4.125 6.20711 4.125 6V4.125Z" fill="current"/>
</svg>
