<svg width="current" height="current" viewBox="0 0 24 24" fill="current" xmlns="http://www.w3.org/2000/svg">
<path fill-rule="evenodd" clip-rule="evenodd" d="M16.76 5.99987C19.8631 5.92488 22.5373 8.1705 23 11.2399C23.0342 11.508 23.0503 11.7781 23.0482 12.0484C23.0214 15.362 20.3136 18.0266 17 17.9999H15C14.4477 17.9999 14 17.5522 14 16.9999C14 16.4476 14.4477 15.9999 15 15.9999H17C17.1293 16.0004 17.2585 15.9947 17.3872 15.9828C19.5868 15.7784 21.2044 13.8295 21 11.6299C20.7429 9.51519 18.9195 7.94303 16.79 7.99987H15C14.4477 7.99987 14 7.55216 14 6.99987C14 6.44987 14.44 5.99987 15.25 5.99987H16.76ZM9 15.9999H7.21C5.0805 16.0567 3.25714 14.4845 3 12.3699C2.79563 10.1702 4.41314 8.22135 6.61281 8.01698C6.74152 8.00502 6.87073 7.99931 7 7.99986H9C9.55228 7.99986 10 7.55215 10 6.99986C10 6.44758 9.55228 5.99986 9 5.99986H7.21C4.14528 5.95891 1.5182 8.18084 1.05 11.2099C0.613691 14.4947 2.9229 17.5113 6.20776 17.9476C6.47039 17.9825 6.73505 18 6.99999 17.9999H8.99999C9.55228 17.9999 9.99999 17.5521 9.99999 16.9999C9.99999 16.4476 9.55228 15.9999 8.99999 15.9999L9 15.9999ZM8 11.9999C8 12.5522 8.44771 12.9999 9 12.9999H15C15.5523 12.9999 16 12.5522 16 11.9999C16 11.4476 15.5523 10.9999 15 10.9999H9C8.44771 10.9999 8 11.4476 8 11.9999Z" fill="current"/>
</svg>
