<svg width="current" height="current" viewBox="0 0 24 24" fill="current" xmlns="http://www.w3.org/2000/svg">
<path fill-rule="evenodd" clip-rule="evenodd" d="M13.7929 4.7932C15.288 3.2981 17.712 3.2981 19.2071 4.7932C20.6506 6.23673 20.7004 8.54625 19.3564 10.0495L19.2071 10.2074L18.2071 11.2074L8.70711 20.7074C8.55083 20.8637 8.34815 20.9629 8.13144 20.9916L8 21.0003H4C3.48716 21.0003 3.06449 20.6143 3.00673 20.1169L3 20.0003V16.0003C3 15.7793 3.07316 15.5658 3.20608 15.3923L3.29289 15.2932L12.7927 5.79334C12.7928 5.79329 12.7928 5.79324 12.7929 5.7932C12.7929 5.79315 12.793 5.7931 12.793 5.79305L13.7929 4.7932ZM13.5 7.9145L5 16.4143V18.9993H7.585L16.0856 10.5002L13.5 7.9145ZM17.5 9.08606L14.9142 6.5003L15.2071 6.20741L15.3301 6.09501C16.0484 5.49557 17.1185 5.53303 17.7929 6.20741L17.9053 6.33037C18.5047 7.04872 18.4673 8.11882 17.7929 8.7932L17.5 9.08606Z" fill="current"/>
</svg>
