<svg width="current" height="current" viewBox="0 0 17 17" fill="current" xmlns="http://www.w3.org/2000/svg">
<path d="M15.7594 4.73184L12.268 1.24122C12.1519 1.12511 12.0141 1.03301 11.8624 0.970178C11.7107 0.907342 11.5482 0.875 11.384 0.875C11.2198 0.875 11.0572 0.907342 10.9056 0.970178C10.7539 1.03301 10.6161 1.12511 10.5 1.24122L0.866412 10.8748C0.749834 10.9905 0.657407 11.1281 0.594506 11.2798C0.531604 11.4315 0.499482 11.5942 0.500006 11.7584V15.2498C0.500006 15.5813 0.631702 15.8993 0.866123 16.1337C1.10054 16.3681 1.41849 16.4998 1.75001 16.4998H14.875C15.0408 16.4998 15.1997 16.434 15.3169 16.3168C15.4342 16.1995 15.5 16.0406 15.5 15.8748C15.5 15.7091 15.4342 15.5501 15.3169 15.4329C15.1997 15.3157 15.0408 15.2498 14.875 15.2498H7.00938L15.7594 6.49981C15.8755 6.38373 15.9676 6.24592 16.0304 6.09425C16.0933 5.94257 16.1256 5.78 16.1256 5.61583C16.1256 5.45165 16.0933 5.28908 16.0304 5.13741C15.9676 4.98573 15.8755 4.84792 15.7594 4.73184ZM5.24141 15.2498H1.75001V11.7584L8.625 4.88341L12.1164 8.37481L5.24141 15.2498ZM13 7.49122L9.50938 3.99981L11.3844 2.12481L14.875 5.61622L13 7.49122Z" fill="current"/>
</svg>
