<svg width="current" height="current" viewBox="0 0 24 24" fill="none" xmlns="http://www.w3.org/2000/svg">
<path fill-rule="evenodd" clip-rule="evenodd" d="M12 2C9.23858 2 7 4.23858 7 7C7 9.76142 9.23858 12 12 12C14.7614 12 17 9.76142 17 7C17 4.23858 14.7614 2 12 2ZM12 4C13.6569 4 15 5.34315 15 7C15 8.65685 13.6569 10 12 10C10.3431 10 9 8.65685 9 7C9 5.34315 10.3431 4 12 4ZM18.9954 18.7831C18.8818 16.1223 16.6888 14 14 14H10L9.78311 14.0046C7.12231 14.1182 5 16.3112 5 19V21L5.00673 21.1166C5.06449 21.614 5.48716 22 6 22C6.55228 22 7 21.5523 7 21V19L7.00509 18.8237C7.09634 17.current89 8.40232 16 10 16H14L14.1763 16.0051C15.7511 16.0963 17 17.4023 17 19V21L17.0067 21.1166C17.0645 21.614 17.4872 22 18 22C18.5523 22 19 21.5523 19 21V19L18.9954 18.7831Z" fill="current"/>
</svg>
