<svg width="95" height="30" viewBox="0 0 95 30" fill="none" xmlns="http://www.w3.org/2000/svg">
<g id="Group 47653">
<path id="Vector" fill-rule="evenodd" clip-rule="evenodd" d="M10.8479 22.7504C10.931 22.5972 11.2408 22.545 11.3208 22.7L13.5083 26.9425C13.5417 27.0072 13.5297 27.0852 13.4752 27.1336C13.0343 27.525 10.987 29.183 7.94492 29.183C4.49566 29.183 1.97655 27.6328 1.97655 23.5247V15.126C1.97655 15.0342 1.90206 14.9597 1.81021 14.9597H0.166334C0.07447 14.9597 0 14.8852 0 14.7934V9.66147C0 9.56961 0.07447 9.49514 0.166334 9.49514H1.81021C1.90206 9.49514 1.97655 9.42067 1.97655 9.32881V3.03426C1.97655 2.94239 2.05101 2.86792 2.14288 2.86792H7.93361C8.02546 2.86792 8.09994 2.94239 8.09994 3.03426V9.32881C8.09994 9.42067 8.17441 9.49514 8.26627 9.49514H11.9254C12.0173 9.49514 12.0918 9.56961 12.0918 9.66147V14.7934C12.0918 14.8852 12.0173 14.9597 11.9254 14.9597H8.26627C8.17441 14.9597 8.09994 15.0342 8.09994 15.126V21.5482C8.09994 22.7108 8.60376 23.4859 9.37888 23.4859C10.0659 23.4859 10.597 23.2131 10.8479 22.7504ZM27.1546 9.66147C27.1546 9.56961 27.2292 9.49514 27.321 9.49514H33.1117C33.2037 9.49514 33.278 9.56961 33.278 9.66147V28.7066C33.278 28.7985 33.2037 28.873 33.1117 28.873H27.321C27.2292 28.873 27.1546 28.7985 27.1546 28.7066V27.6607C27.1546 27.5162 26.9815 27.4388 26.87 27.5308C25.5964 28.5804 24.0141 29.183 22.4652 29.183C17.582 29.183 14.4428 25.2299 14.4428 20.0367V9.66147C14.4428 9.56961 14.5173 9.49514 14.6092 9.49514H20.5549C20.6468 9.49514 20.7212 9.56961 20.7212 9.66147V19.8429C20.7212 22.0907 22.0001 23.5634 23.9379 23.5634C25.8757 23.5634 27.1546 22.052 27.1546 19.8041V9.66147ZM42.109 10.8373C43.3826 9.7877 44.9676 9.1851 46.5524 9.1851C47.2678 9.1851 47.9501 9.28411 48.5689 9.45171C48.6552 9.47505 48.7056 9.56357 48.6838 9.65018L47.1605 15.7067C47.1304 15.8266 46.9846 15.873 46.8886 15.7953C46.1461 15.1943 45.4312 14.8047 45.041 14.8047C43.1032 14.8047 41.8242 16.3161 41.8242 18.564V28.7066C41.8242 28.7985 41.7497 28.873 41.6579 28.873H35.8672C35.7754 28.873 35.7008 28.7985 35.7008 28.7066V9.66147C35.7008 9.56961 35.7754 9.49514 35.8672 9.49514H41.6579C41.7497 9.49514 41.8242 9.56961 41.8242 9.66147V10.7074C41.8242 10.8519 41.9974 10.9292 42.109 10.8373ZM57.1069 10.0758C58.3619 9.49271 59.7493 9.1851 61.2052 9.1851C66.7473 9.1851 71.2042 13.6808 71.2042 19.1841C71.2042 24.6874 66.7473 29.183 61.2052 29.183C59.7493 29.183 58.3619 28.8755 57.1069 28.2923C56.9948 28.2401 56.8646 28.3209 56.8646 28.4445V28.7066C56.8646 28.7985 56.7901 28.873 56.6983 28.873H50.9075C50.8157 28.873 50.7412 28.7985 50.7412 28.7066V0.166334C50.7412 0.0744701 50.8157 0 50.9075 0H56.6983C56.7901 0 56.8646 0.0744701 56.8646 0.166334V9.92362C56.8646 10.0473 56.9948 10.128 57.1069 10.0758ZM57.1359 19.1841C57.1359 21.7419 58.6861 23.4472 61.0114 23.4472C63.3368 23.4472 64.887 21.7419 64.887 19.1841C64.887 16.6262 63.3368 14.9209 61.0114 14.9209C58.6861 14.9209 57.1359 16.6262 57.1359 19.1841ZM94.2989 15.7574H93.8315C93.445 15.7574 93.1304 15.4429 93.1304 15.0563V14.5683H88.8889C88.7512 14.5683 88.6394 14.68 88.6394 14.8178C88.6394 14.9556 88.7512 15.0673 88.8889 15.0673H91.8668C92.5684 16.4397 92.9641 17.9944 92.9641 19.6415C92.9641 25.1992 88.4586 29.7046 82.9009 29.7046C77.3432 29.7046 72.8378 25.1992 72.8378 19.6415C72.8378 14.1115 77.2983 9.62332 82.8177 9.57864L82.9009 9.57831H93.1304V9.44772C93.1304 9.06119 93.445 8.74664 93.8315 8.74664H94.2989C94.6855 8.74664 95 9.06119 95 9.44772V15.0563C95 15.4429 94.6858 15.7574 94.2989 15.7574ZM93.8315 9.21402C93.7024 9.21402 93.5978 9.31871 93.5978 9.44772V15.0563C93.5978 15.1853 93.7024 15.29 93.8315 15.29H94.2989C94.4278 15.29 94.5326 15.1853 94.5326 15.0563V9.44772C94.5326 9.31871 94.4278 9.21402 94.2989 9.21402H93.8315ZM82.9009 23.0513C84.7841 23.0513 86.3107 21.5247 86.3107 19.6415C86.3107 17.7582 84.7841 16.2316 82.9009 16.2316C81.0177 16.2316 79.4911 17.7582 79.4911 19.6415C79.4911 21.5247 81.0177 23.0513 82.9009 23.0513Z" fill="#EDEDED"/>
</g>
</svg>
